<?xml version="1.0" encoding="UTF-8"?>
<svg xmlns="http://www.w3.org/2000/svg" xmlns:xlink="http://www.w3.org/1999/xlink" width="24pt" height="24pt" viewBox="0 0 24 24" version="1.1">
<g id="surface1">
<path style=" stroke:none;fill-rule:nonzero;fill:rgb(0.392157%,0%,0.784314%);fill-opacity:1;" d="M 12 0.0507812 C 5.371094 0.0507812 0 5.421875 0 12.050781 C 0 17.992188 4.328125 22.917969 10 23.871094 L 10 14.554688 L 7.105469 14.554688 L 7.105469 11.199219 L 10 11.199219 L 10 8.730469 C 10 5.859375 11.75 4.296875 14.308594 4.296875 C 15.535156 4.296875 16.589844 4.390625 16.894531 4.429688 L 16.894531 7.425781 L 15.121094 7.429688 C 13.726562 7.429688 13.460938 8.089844 13.460938 9.058594 L 13.460938 11.199219 L 16.78125 11.199219 L 16.347656 14.550781 L 13.460938 14.550781 L 13.460938 23.949219 C 19.398438 23.226562 24 18.179688 24 12.046875 C 24 5.421875 18.628906 0.0507812 12 0.0507812 Z M 12 0.0507812 "/>
</g>
</svg>
