<?xml version="1.0" encoding="UTF-8"?>
<svg xmlns="http://www.w3.org/2000/svg" xmlns:xlink="http://www.w3.org/1999/xlink" width="24pt" height="24pt" viewBox="0 0 24 24" version="1.1">
<g id="surface1">
<path style=" stroke:none;fill-rule:evenodd;fill:rgb(29.803922%,67.45098%,32.54902%);fill-opacity:1;" d="M 4.738281 15.273438 C 3.847656 15.960938 3.117188 16.527344 3.113281 16.53125 C 3.097656 16.546875 3.25 16.835938 3.425781 17.121094 C 4.351562 18.664062 5.660156 19.925781 7.230469 20.785156 C 7.449219 20.90625 7.902344 21.132812 7.941406 21.144531 C 7.949219 21.144531 8.03125 21.179688 8.121094 21.21875 C 8.214844 21.257812 8.386719 21.324219 8.503906 21.371094 C 8.625 21.414062 8.742188 21.460938 8.765625 21.472656 C 8.792969 21.484375 8.863281 21.507812 8.925781 21.523438 C 8.988281 21.539062 9.066406 21.5625 9.105469 21.578125 C 9.195312 21.609375 9.582031 21.710938 9.796875 21.757812 C 9.890625 21.777344 10.011719 21.804688 10.070312 21.820312 C 10.222656 21.855469 10.621094 21.914062 11.046875 21.960938 C 11.457031 22.003906 12.125 22.019531 12.546875 21.988281 C 13.027344 21.957031 13.589844 21.886719 13.882812 21.824219 C 13.921875 21.8125 14.046875 21.789062 14.160156 21.765625 C 15.414062 21.496094 16.773438 20.878906 17.851562 20.09375 C 18.214844 19.824219 18.683594 19.441406 18.683594 19.40625 C 18.683594 19.390625 15.945312 17.058594 15.65625 16.828125 L 15.597656 16.78125 L 15.554688 16.8125 C 15.332031 16.976562 15.089844 17.132812 14.882812 17.242188 C 14.8125 17.28125 14.714844 17.332031 14.671875 17.355469 C 14.226562 17.597656 13.449219 17.84375 12.894531 17.925781 C 12.832031 17.933594 12.761719 17.945312 12.746094 17.949219 C 12.480469 17.988281 11.703125 18.003906 11.460938 17.972656 C 11.382812 17.960938 11.261719 17.945312 11.191406 17.9375 C 10.960938 17.910156 10.667969 17.851562 10.433594 17.785156 C 10.144531 17.707031 10.09375 17.6875 9.789062 17.570312 C 8.292969 16.980469 7.003906 15.6875 6.433594 14.195312 C 6.398438 14.101562 6.363281 14.027344 6.359375 14.027344 C 6.355469 14.027344 5.625 14.589844 4.738281 15.273438 "/>
<path style=" stroke:none;fill-rule:evenodd;fill:rgb(10.980392%,45.490196%,82.745098%);fill-opacity:1;" d="M 12 12 L 12 13.996094 L 14.828125 13.996094 C 16.382812 13.996094 17.65625 13.996094 17.65625 14 C 17.65625 14.058594 17.292969 14.851562 17.269531 14.851562 C 17.261719 14.851562 17.253906 14.859375 17.253906 14.871094 C 17.253906 14.898438 17.160156 15.058594 17.144531 15.058594 C 17.136719 15.058594 17.132812 15.066406 17.136719 15.074219 C 17.140625 15.082031 17.132812 15.101562 17.121094 15.117188 C 17.105469 15.132812 17.089844 15.15625 17.089844 15.167969 C 17.085938 15.179688 17.074219 15.195312 17.058594 15.207031 C 17.046875 15.214844 17.039062 15.226562 17.046875 15.226562 C 17.054688 15.226562 17.050781 15.234375 17.035156 15.246094 C 17.015625 15.261719 17.007812 15.269531 17.015625 15.269531 C 17.019531 15.269531 17.007812 15.296875 16.984375 15.328125 C 16.964844 15.363281 16.941406 15.390625 16.933594 15.390625 C 16.925781 15.390625 16.921875 15.394531 16.925781 15.402344 C 16.929688 15.410156 16.921875 15.425781 16.90625 15.4375 C 16.890625 15.449219 16.878906 15.464844 16.882812 15.46875 C 16.890625 15.476562 16.882812 15.484375 16.871094 15.488281 C 16.855469 15.492188 16.847656 15.503906 16.851562 15.511719 C 16.855469 15.515625 16.847656 15.53125 16.832031 15.542969 C 16.8125 15.554688 16.804688 15.570312 16.808594 15.574219 C 16.8125 15.578125 16.804688 15.589844 16.785156 15.597656 C 16.769531 15.609375 16.757812 15.621094 16.761719 15.628906 C 16.765625 15.636719 16.757812 15.652344 16.742188 15.664062 C 16.722656 15.675781 16.714844 15.6875 16.71875 15.695312 C 16.722656 15.699219 16.710938 15.714844 16.6875 15.730469 C 16.667969 15.75 16.648438 15.769531 16.648438 15.777344 C 16.648438 15.785156 16.632812 15.804688 16.613281 15.820312 C 16.59375 15.832031 16.578125 15.847656 16.582031 15.855469 C 16.585938 15.863281 16.5625 15.890625 16.53125 15.914062 C 16.496094 15.941406 16.46875 15.972656 16.46875 15.980469 C 16.46875 15.992188 16.425781 16.039062 16.371094 16.085938 C 16.320312 16.132812 16.277344 16.179688 16.28125 16.183594 C 16.289062 16.191406 16.273438 16.210938 16.25 16.226562 C 16.226562 16.238281 16.152344 16.300781 16.085938 16.363281 C 15.914062 16.53125 15.773438 16.65625 15.765625 16.65625 C 15.761719 16.65625 15.722656 16.683594 15.679688 16.714844 L 15.601562 16.773438 L 17.074219 18.019531 C 17.886719 18.703125 18.582031 19.296875 18.625 19.332031 L 18.703125 19.398438 L 18.746094 19.371094 C 18.769531 19.355469 18.792969 19.34375 18.796875 19.347656 C 18.816406 19.351562 19.308594 18.867188 19.492188 18.660156 C 20.421875 17.621094 21.148438 16.332031 21.558594 14.992188 C 21.660156 14.667969 21.773438 14.214844 21.800781 14.039062 C 21.804688 14.011719 21.824219 13.921875 21.839844 13.84375 C 21.855469 13.765625 21.871094 13.648438 21.878906 13.582031 C 21.882812 13.515625 21.894531 13.457031 21.898438 13.445312 C 21.914062 13.429688 21.921875 13.355469 21.9375 13.097656 C 21.941406 13.027344 21.949219 12.964844 21.957031 12.957031 C 21.960938 12.945312 21.964844 12.886719 21.96875 12.824219 C 21.972656 12.761719 21.976562 12.660156 21.980469 12.59375 C 22.023438 11.964844 21.96875 11.050781 21.851562 10.339844 L 21.804688 10.050781 L 21.402344 10.050781 C 21.054688 10.050781 21 10.046875 21 10.027344 C 21 10.007812 20.488281 10.003906 16.5 10.003906 L 12 10.003906 L 12 12 "/>
<path style=" stroke:none;fill-rule:evenodd;fill:rgb(98.823529%,23.529412%,1.568627%);fill-opacity:1;" d="M 11.46875 2.003906 C 11.320312 2.011719 10.753906 2.066406 10.636719 2.085938 C 10.582031 2.09375 10.472656 2.113281 10.390625 2.125 C 10.308594 2.136719 10.191406 2.15625 10.132812 2.167969 C 10.074219 2.179688 9.988281 2.199219 9.941406 2.207031 C 9.820312 2.226562 9.292969 2.359375 9.113281 2.417969 C 8.804688 2.511719 8.230469 2.714844 8.199219 2.742188 C 8.191406 2.75 8.121094 2.78125 8.042969 2.8125 C 7.640625 2.972656 6.691406 3.492188 6.433594 3.691406 C 6.402344 3.714844 6.339844 3.761719 6.289062 3.792969 C 5.226562 4.457031 3.941406 5.898438 3.214844 7.230469 L 3.152344 7.34375 L 4.800781 8.554688 L 6.445312 9.761719 L 6.488281 9.660156 C 7.234375 7.863281 8.828125 6.5625 10.828125 6.121094 C 10.90625 6.101562 11.230469 6.054688 11.460938 6.027344 C 12.90625 5.855469 14.640625 6.402344 15.832031 7.40625 L 15.980469 7.53125 L 17.394531 6.117188 C 18.171875 5.339844 18.808594 4.695312 18.808594 4.6875 C 18.808594 4.679688 18.773438 4.640625 18.730469 4.605469 C 18.6875 4.566406 18.601562 4.496094 18.546875 4.445312 C 18.367188 4.289062 18.117188 4.089844 17.796875 3.855469 C 16.0625 2.578125 13.691406 1.886719 11.46875 2.003906 "/>
<path style=" stroke:none;fill-rule:evenodd;fill:rgb(98.431373%,76.470588%,1.568627%);fill-opacity:1;" d="M 6.367188 3.730469 L 6.324219 3.765625 L 6.371094 3.734375 C 6.398438 3.71875 6.421875 3.699219 6.421875 3.695312 C 6.421875 3.683594 6.414062 3.6875 6.367188 3.730469 M 6 3.992188 L 5.949219 4.039062 L 6.003906 3.996094 C 6.054688 3.960938 6.070312 3.945312 6.054688 3.945312 C 6.054688 3.945312 6.027344 3.964844 6 3.992188 M 5.625 4.285156 C 5.570312 4.328125 5.515625 4.378906 5.496094 4.398438 C 5.480469 4.414062 5.527344 4.378906 5.597656 4.320312 C 5.710938 4.226562 5.742188 4.199219 5.726562 4.199219 C 5.722656 4.199219 5.679688 4.238281 5.625 4.285156 M 5.316406 4.554688 L 5.183594 4.683594 L 5.320312 4.558594 C 5.445312 4.449219 5.46875 4.425781 5.457031 4.425781 C 5.453125 4.425781 5.390625 4.484375 5.316406 4.554688 M 4.917969 4.929688 L 4.703125 5.152344 L 4.921875 4.933594 C 5.128906 4.734375 5.152344 4.710938 5.140625 4.710938 C 5.140625 4.710938 5.039062 4.808594 4.917969 4.929688 M 4.609375 5.253906 C 4.515625 5.351562 4.261719 5.648438 4.164062 5.777344 C 4.054688 5.917969 4.113281 5.855469 4.289062 5.640625 C 4.375 5.535156 4.503906 5.390625 4.570312 5.3125 C 4.710938 5.164062 4.730469 5.128906 4.609375 5.253906 M 4.03125 5.945312 C 3.960938 6.035156 3.859375 6.175781 3.890625 6.148438 C 3.917969 6.125 4.097656 5.878906 4.089844 5.878906 C 4.085938 5.878906 4.0625 5.910156 4.03125 5.945312 M 11.867188 6.011719 C 11.890625 6.015625 11.925781 6.015625 11.945312 6.011719 C 11.960938 6.007812 11.945312 6.003906 11.902344 6.003906 C 11.859375 6.003906 11.847656 6.007812 11.867188 6.011719 M 3.746094 6.339844 C 3.625 6.519531 3.609375 6.539062 3.621094 6.539062 C 3.621094 6.539062 3.679688 6.460938 3.75 6.359375 C 3.816406 6.261719 3.867188 6.179688 3.863281 6.179688 C 3.859375 6.179688 3.808594 6.253906 3.746094 6.339844 M 3.566406 6.609375 C 3.488281 6.734375 3.476562 6.75 3.484375 6.75 C 3.492188 6.75 3.511719 6.71875 3.589844 6.597656 C 3.605469 6.574219 3.613281 6.554688 3.609375 6.554688 C 3.605469 6.554688 3.585938 6.582031 3.566406 6.609375 M 3.402344 6.875 C 3.367188 6.933594 3.335938 6.988281 3.335938 6.992188 C 3.332031 7 3.332031 7.003906 3.335938 7.003906 C 3.339844 7.003906 3.371094 6.957031 3.40625 6.894531 C 3.488281 6.757812 3.484375 6.765625 3.472656 6.765625 C 3.46875 6.765625 3.4375 6.8125 3.402344 6.875 M 3.292969 7.066406 C 3.28125 7.089844 3.273438 7.109375 3.277344 7.109375 C 3.28125 7.109375 3.292969 7.089844 3.308594 7.066406 C 3.320312 7.039062 3.328125 7.019531 3.324219 7.019531 C 3.320312 7.019531 3.304688 7.039062 3.292969 7.066406 M 3.207031 7.21875 C 0.886719 11.394531 2.003906 16.882812 5.773438 19.835938 C 5.824219 19.875 5.863281 19.902344 5.863281 19.898438 C 5.863281 19.894531 5.8125 19.847656 5.75 19.796875 C 4.773438 19.007812 3.945312 18.039062 3.332031 16.964844 C 3.128906 16.609375 3.097656 16.546875 3.121094 16.523438 C 3.132812 16.511719 3.855469 15.957031 4.726562 15.285156 C 5.59375 14.617188 6.320312 14.054688 6.332031 14.042969 C 6.359375 14.019531 6.355469 14.007812 6.300781 13.84375 C 5.941406 12.78125 5.917969 11.488281 6.242188 10.351562 C 6.265625 10.261719 6.320312 10.097656 6.359375 9.984375 C 6.402344 9.867188 6.433594 9.769531 6.433594 9.761719 C 6.433594 9.757812 5.695312 9.210938 4.792969 8.546875 L 3.152344 7.34375 L 3.210938 7.234375 C 3.246094 7.175781 3.269531 7.125 3.265625 7.125 C 3.261719 7.125 3.234375 7.167969 3.207031 7.21875 M 11.863281 17.996094 C 11.898438 18 11.949219 18 11.980469 17.996094 C 12.011719 17.992188 11.984375 17.988281 11.917969 17.988281 C 11.851562 17.988281 11.828125 17.992188 11.863281 17.996094 M 18.691406 19.421875 C 18.660156 19.441406 18.585938 19.503906 18.523438 19.558594 C 17.753906 20.230469 16.761719 20.847656 15.828125 21.230469 C 15.753906 21.261719 15.691406 21.292969 15.695312 21.292969 C 15.699219 21.296875 15.761719 21.273438 15.839844 21.242188 C 16.640625 20.914062 17.484375 20.421875 18.171875 19.878906 C 18.355469 19.730469 18.75 19.398438 18.75 19.386719 C 18.75 19.375 18.746094 19.378906 18.691406 19.421875 M 5.925781 19.949219 C 5.976562 19.996094 6.410156 20.308594 6.503906 20.363281 C 6.589844 20.414062 6.515625 20.359375 6.367188 20.257812 C 6.285156 20.199219 6.148438 20.105469 6.066406 20.042969 C 5.882812 19.90625 5.855469 19.886719 5.925781 19.949219 M 6.789062 20.542969 C 6.820312 20.570312 6.917969 20.621094 6.890625 20.597656 C 6.882812 20.589844 6.851562 20.570312 6.816406 20.550781 C 6.785156 20.53125 6.769531 20.527344 6.789062 20.542969 M 7.125 20.738281 C 7.125 20.742188 7.144531 20.753906 7.171875 20.765625 C 7.195312 20.78125 7.214844 20.789062 7.214844 20.785156 C 7.214844 20.777344 7.195312 20.765625 7.171875 20.753906 C 7.144531 20.738281 7.125 20.734375 7.125 20.738281 M 7.230469 20.796875 C 7.230469 20.800781 7.25 20.816406 7.273438 20.828125 C 7.300781 20.839844 7.320312 20.847656 7.320312 20.84375 C 7.320312 20.839844 7.300781 20.824219 7.273438 20.8125 C 7.25 20.800781 7.230469 20.792969 7.230469 20.796875 M 7.710938 21.046875 C 7.738281 21.0625 7.769531 21.074219 7.777344 21.074219 C 7.785156 21.074219 7.769531 21.0625 7.738281 21.046875 C 7.710938 21.027344 7.679688 21.015625 7.671875 21.015625 C 7.664062 21.015625 7.679688 21.027344 7.710938 21.046875 M 15.453125 21.378906 C 15.386719 21.402344 15.332031 21.425781 15.335938 21.429688 C 15.34375 21.4375 15.601562 21.34375 15.601562 21.335938 C 15.601562 21.324219 15.578125 21.332031 15.453125 21.378906 M 15.007812 21.53125 C 14.925781 21.558594 14.863281 21.582031 14.875 21.582031 C 14.894531 21.585938 15.179688 21.496094 15.179688 21.488281 C 15.179688 21.476562 15.167969 21.480469 15.007812 21.53125 M 14.46875 21.691406 C 14.449219 21.699219 14.445312 21.703125 14.460938 21.703125 C 14.472656 21.703125 14.496094 21.695312 14.511719 21.691406 C 14.53125 21.683594 14.535156 21.675781 14.519531 21.675781 C 14.507812 21.675781 14.484375 21.683594 14.46875 21.691406 "/>
<path style=" stroke:none;fill-rule:evenodd;fill:rgb(44.705882%,58.039216%,51.372549%);fill-opacity:1;" d="M 14.246094 10 C 15.484375 10.003906 17.515625 10.003906 18.753906 10 C 19.992188 10 18.980469 9.996094 16.5 9.996094 C 14.019531 9.996094 13.007812 10 14.246094 10 M 21.199219 10.046875 C 21.3125 10.046875 21.496094 10.046875 21.609375 10.046875 C 21.726562 10.042969 21.632812 10.042969 21.40625 10.042969 C 21.179688 10.042969 21.085938 10.042969 21.199219 10.046875 M 21.902344 10.648438 C 21.902344 10.679688 21.90625 10.691406 21.910156 10.675781 C 21.914062 10.660156 21.914062 10.636719 21.910156 10.625 C 21.90625 10.609375 21.902344 10.621094 21.902344 10.648438 M 21.917969 10.769531 C 21.917969 10.800781 21.921875 10.8125 21.925781 10.796875 C 21.929688 10.78125 21.929688 10.757812 21.925781 10.742188 C 21.921875 10.730469 21.917969 10.742188 21.917969 10.769531 M 21.933594 10.890625 C 21.933594 10.917969 21.9375 10.929688 21.941406 10.917969 C 21.945312 10.902344 21.945312 10.878906 21.941406 10.863281 C 21.9375 10.847656 21.933594 10.859375 21.933594 10.890625 M 21.949219 11.03125 C 21.949219 11.074219 21.953125 11.089844 21.957031 11.066406 C 21.960938 11.042969 21.960938 11.007812 21.957031 10.992188 C 21.953125 10.972656 21.949219 10.992188 21.949219 11.03125 M 21.964844 11.21875 C 21.964844 11.265625 21.96875 11.285156 21.972656 11.261719 C 21.972656 11.238281 21.972656 11.203125 21.972656 11.179688 C 21.96875 11.15625 21.964844 11.175781 21.964844 11.21875 M 21.980469 11.414062 C 21.980469 11.460938 21.980469 11.480469 21.984375 11.457031 C 21.988281 11.433594 21.988281 11.394531 21.984375 11.375 C 21.980469 11.351562 21.980469 11.371094 21.980469 11.414062 M 21.996094 11.992188 C 21.996094 12.207031 22 12.292969 22 12.183594 C 22.003906 12.074219 22.003906 11.898438 22 11.792969 C 22 11.6875 21.996094 11.777344 21.996094 11.992188 M 21.980469 12.59375 C 21.980469 12.640625 21.984375 12.660156 21.984375 12.632812 C 21.988281 12.605469 21.988281 12.566406 21.984375 12.542969 C 21.980469 12.519531 21.980469 12.542969 21.980469 12.59375 M 21.964844 12.800781 C 21.964844 12.835938 21.96875 12.847656 21.96875 12.828125 C 21.972656 12.808594 21.972656 12.78125 21.96875 12.769531 C 21.964844 12.753906 21.964844 12.769531 21.964844 12.800781 M 21.949219 13.003906 C 21.949219 13.035156 21.953125 13.046875 21.957031 13.03125 C 21.960938 13.015625 21.960938 12.992188 21.957031 12.980469 C 21.953125 12.964844 21.949219 12.976562 21.949219 13.003906 M 14.816406 14.007812 C 17.496094 14.011719 17.636719 14.011719 17.628906 14.035156 C 17.625 14.058594 17.625 14.058594 17.636719 14.039062 C 17.648438 14.027344 17.65625 14.011719 17.65625 14.007812 C 17.65625 14 16.382812 13.996094 14.824219 14 L 11.992188 14.003906 L 14.816406 14.007812 M 17.597656 14.117188 C 17.585938 14.144531 17.582031 14.167969 17.585938 14.171875 C 17.589844 14.175781 17.597656 14.15625 17.609375 14.128906 C 17.617188 14.101562 17.621094 14.078125 17.621094 14.074219 C 17.617188 14.070312 17.605469 14.089844 17.597656 14.117188 M 17.492188 14.371094 C 17.464844 14.433594 17.449219 14.484375 17.449219 14.484375 C 17.453125 14.488281 17.476562 14.441406 17.503906 14.382812 C 17.53125 14.324219 17.550781 14.273438 17.546875 14.269531 C 17.542969 14.269531 17.519531 14.3125 17.492188 14.371094 M 17.351562 14.679688 C 17.304688 14.773438 17.269531 14.851562 17.273438 14.851562 C 17.28125 14.851562 17.449219 14.519531 17.441406 14.511719 C 17.4375 14.507812 17.398438 14.582031 17.351562 14.679688 M 17.21875 14.925781 C 17.203125 14.957031 17.191406 14.984375 17.195312 14.984375 C 17.199219 14.984375 17.21875 14.957031 17.234375 14.925781 C 17.25 14.890625 17.261719 14.863281 17.257812 14.863281 C 17.253906 14.863281 17.238281 14.890625 17.21875 14.925781 M 16.984375 15.3125 C 16.945312 15.367188 16.933594 15.390625 16.941406 15.390625 C 16.941406 15.390625 16.964844 15.363281 16.984375 15.328125 C 17.03125 15.261719 17.027344 15.246094 16.984375 15.3125 M 18.664062 19.371094 C 18.699219 19.410156 18.707031 19.414062 18.722656 19.394531 C 18.738281 19.378906 18.738281 19.378906 18.722656 19.386719 C 18.710938 19.394531 18.6875 19.382812 18.664062 19.363281 L 18.621094 19.328125 L 18.664062 19.371094 "/>
</g>
</svg>
