<?xml version="1.0" encoding="UTF-8"?>
<svg xmlns="http://www.w3.org/2000/svg" xmlns:xlink="http://www.w3.org/1999/xlink" width="24pt" height="24pt" viewBox="0 0 24 24" version="1.1">
<g id="surface1">
<path style=" stroke:none;fill-rule:evenodd;fill:rgb(98.431373%,98.039216%,98.039216%);fill-opacity:1;" d="M 11.0625 6.140625 C 8.710938 6.152344 7.984375 6.164062 7.921875 6.1875 C 7.875 6.203125 7.796875 6.214844 7.746094 6.214844 C 7.695312 6.214844 7.613281 6.238281 7.558594 6.265625 C 7.507812 6.289062 7.445312 6.3125 7.421875 6.3125 C 7.394531 6.3125 7.355469 6.332031 7.332031 6.359375 C 7.308594 6.386719 7.273438 6.40625 7.257812 6.40625 C 7.238281 6.40625 7.222656 6.417969 7.222656 6.433594 C 7.222656 6.445312 7.1875 6.472656 7.144531 6.492188 C 7.101562 6.511719 7.023438 6.5625 6.972656 6.613281 C 6.917969 6.660156 6.863281 6.703125 6.851562 6.714844 C 6.617188 6.878906 6.3125 7.277344 6.3125 7.417969 C 6.3125 7.441406 6.292969 7.519531 6.265625 7.597656 C 6.242188 7.683594 6.214844 7.859375 6.207031 8.027344 C 6.199219 8.1875 6.179688 8.363281 6.167969 8.425781 C 6.140625 8.566406 6.140625 15.382812 6.167969 15.527344 C 6.179688 15.585938 6.195312 15.761719 6.203125 15.910156 C 6.21875 16.164062 6.28125 16.460938 6.339844 16.558594 C 6.351562 16.578125 6.375 16.625 6.390625 16.65625 C 6.449219 16.777344 6.761719 17.097656 6.875 17.148438 C 6.914062 17.167969 6.996094 17.210938 7.054688 17.246094 C 7.117188 17.28125 7.199219 17.320312 7.242188 17.332031 C 7.285156 17.34375 7.320312 17.363281 7.320312 17.375 C 7.320312 17.386719 7.359375 17.40625 7.410156 17.414062 C 7.460938 17.421875 7.523438 17.441406 7.546875 17.460938 C 7.574219 17.476562 7.648438 17.496094 7.714844 17.507812 C 7.78125 17.515625 7.859375 17.539062 7.882812 17.554688 C 7.910156 17.570312 8.003906 17.59375 8.09375 17.601562 C 8.1875 17.609375 8.300781 17.632812 8.347656 17.652344 C 8.523438 17.71875 9.363281 17.742188 11.664062 17.746094 C 12.910156 17.75 14.234375 17.761719 14.605469 17.769531 C 15.160156 17.785156 15.3125 17.78125 15.492188 17.753906 C 15.609375 17.730469 15.800781 17.707031 15.910156 17.699219 C 16.023438 17.6875 16.144531 17.667969 16.175781 17.652344 C 16.210938 17.636719 16.296875 17.613281 16.367188 17.605469 C 16.441406 17.59375 16.515625 17.574219 16.535156 17.554688 C 16.554688 17.539062 16.609375 17.515625 16.65625 17.507812 C 16.703125 17.496094 16.761719 17.476562 16.789062 17.457031 C 16.8125 17.4375 16.851562 17.425781 16.875 17.425781 C 16.898438 17.425781 16.929688 17.410156 16.949219 17.390625 C 16.96875 17.371094 17.015625 17.339844 17.054688 17.320312 C 17.195312 17.25 17.328125 17.101562 17.410156 16.925781 C 17.429688 16.886719 17.457031 16.84375 17.472656 16.835938 C 17.484375 16.828125 17.496094 16.800781 17.496094 16.78125 C 17.496094 16.757812 17.515625 16.699219 17.542969 16.648438 C 17.566406 16.597656 17.59375 16.511719 17.605469 16.457031 C 17.613281 16.402344 17.632812 16.335938 17.652344 16.308594 C 17.667969 16.28125 17.6875 16.183594 17.699219 16.09375 C 17.707031 16.003906 17.730469 15.886719 17.75 15.832031 C 17.769531 15.78125 17.785156 15.660156 17.785156 15.566406 C 17.785156 15.472656 17.796875 15.273438 17.8125 15.121094 C 17.828125 14.941406 17.839844 13.980469 17.84375 12.421875 C 17.847656 11.085938 17.855469 9.585938 17.867188 9.082031 C 17.882812 8.199219 17.882812 8.160156 17.835938 7.949219 C 17.808594 7.832031 17.785156 7.703125 17.785156 7.664062 C 17.785156 7.625 17.769531 7.574219 17.75 7.546875 C 17.734375 7.519531 17.710938 7.464844 17.703125 7.421875 C 17.691406 7.382812 17.671875 7.335938 17.652344 7.320312 C 17.632812 7.304688 17.613281 7.261719 17.605469 7.222656 C 17.597656 7.1875 17.574219 7.148438 17.554688 7.144531 C 17.535156 7.136719 17.519531 7.113281 17.519531 7.09375 C 17.519531 7.074219 17.476562 7.003906 17.417969 6.933594 C 17.332031 6.824219 17.257812 6.746094 17.039062 6.542969 C 17.019531 6.523438 16.980469 6.503906 16.953125 6.492188 C 16.921875 6.484375 16.886719 6.460938 16.871094 6.441406 C 16.855469 6.421875 16.820312 6.40625 16.789062 6.40625 C 16.761719 6.40625 16.703125 6.386719 16.65625 6.363281 C 16.609375 6.339844 16.511719 6.3125 16.441406 6.300781 C 16.371094 6.292969 16.289062 6.273438 16.261719 6.257812 C 16.234375 6.246094 16.070312 6.222656 15.894531 6.214844 C 15.71875 6.203125 15.535156 6.179688 15.484375 6.167969 C 15.359375 6.128906 14.589844 6.125 11.0625 6.140625 M 10.625 9.40625 C 10.660156 9.433594 10.707031 9.457031 10.726562 9.457031 C 10.75 9.457031 10.78125 9.472656 10.796875 9.488281 C 10.8125 9.507812 10.863281 9.53125 10.90625 9.539062 C 10.949219 9.546875 11 9.570312 11.015625 9.585938 C 11.03125 9.605469 11.074219 9.628906 11.113281 9.636719 C 11.148438 9.644531 11.191406 9.664062 11.207031 9.683594 C 11.222656 9.703125 11.265625 9.722656 11.304688 9.730469 C 11.34375 9.742188 11.386719 9.761719 11.402344 9.78125 C 11.417969 9.800781 11.441406 9.816406 11.460938 9.816406 C 11.476562 9.816406 11.515625 9.835938 11.550781 9.863281 C 11.585938 9.890625 11.628906 9.910156 11.648438 9.910156 C 11.671875 9.910156 11.710938 9.933594 11.734375 9.960938 C 11.761719 9.988281 11.804688 10.007812 11.828125 10.007812 C 11.851562 10.007812 11.890625 10.03125 11.914062 10.054688 C 11.941406 10.082031 11.976562 10.105469 12 10.105469 C 12.023438 10.105469 12.058594 10.125 12.085938 10.152344 C 12.109375 10.179688 12.144531 10.199219 12.164062 10.199219 C 12.1875 10.199219 12.230469 10.222656 12.265625 10.246094 C 12.296875 10.273438 12.34375 10.296875 12.363281 10.296875 C 12.386719 10.296875 12.414062 10.308594 12.421875 10.324219 C 12.429688 10.335938 12.472656 10.363281 12.511719 10.382812 C 12.554688 10.402344 12.632812 10.445312 12.683594 10.476562 C 12.800781 10.546875 12.808594 10.550781 12.894531 10.582031 C 12.929688 10.597656 12.960938 10.617188 12.960938 10.628906 C 12.960938 10.640625 12.992188 10.660156 13.03125 10.667969 C 13.070312 10.675781 13.113281 10.699219 13.128906 10.714844 C 13.144531 10.734375 13.1875 10.757812 13.226562 10.765625 C 13.265625 10.773438 13.304688 10.796875 13.3125 10.8125 C 13.320312 10.832031 13.34375 10.847656 13.367188 10.847656 C 13.386719 10.847656 13.433594 10.867188 13.464844 10.890625 C 13.53125 10.9375 13.769531 11.066406 13.894531 11.125 C 13.941406 11.148438 13.988281 11.179688 14 11.199219 C 14.007812 11.21875 14.03125 11.230469 14.050781 11.230469 C 14.089844 11.230469 14.335938 11.355469 14.347656 11.378906 C 14.351562 11.390625 14.390625 11.410156 14.4375 11.425781 C 14.484375 11.441406 14.519531 11.460938 14.519531 11.472656 C 14.519531 11.480469 14.550781 11.5 14.585938 11.507812 C 14.707031 11.539062 14.832031 11.660156 14.832031 11.746094 C 14.832031 11.824219 14.726562 12.023438 14.6875 12.023438 C 14.675781 12.023438 14.664062 12.050781 14.65625 12.082031 C 14.636719 12.152344 14.300781 12.503906 14.246094 12.503906 C 14.226562 12.503906 14.207031 12.511719 14.207031 12.527344 C 14.207031 12.539062 14.167969 12.566406 14.117188 12.59375 C 13.859375 12.722656 13.710938 12.808594 13.683594 12.832031 C 13.667969 12.851562 13.636719 12.863281 13.621094 12.863281 C 13.605469 12.863281 13.5625 12.886719 13.53125 12.910156 C 13.5 12.9375 13.445312 12.964844 13.40625 12.972656 C 13.371094 12.980469 13.34375 12.996094 13.34375 13.007812 C 13.34375 13.015625 13.304688 13.042969 13.253906 13.0625 C 13.203125 13.085938 13.121094 13.128906 13.066406 13.164062 C 13.015625 13.195312 12.957031 13.226562 12.9375 13.238281 C 12.917969 13.246094 12.882812 13.261719 12.863281 13.273438 C 12.84375 13.285156 12.800781 13.308594 12.769531 13.324219 C 12.734375 13.339844 12.683594 13.375 12.652344 13.398438 C 12.621094 13.421875 12.578125 13.441406 12.558594 13.441406 C 12.539062 13.441406 12.507812 13.457031 12.488281 13.476562 C 12.46875 13.496094 12.425781 13.519531 12.390625 13.527344 C 12.355469 13.535156 12.308594 13.5625 12.285156 13.585938 C 12.261719 13.613281 12.21875 13.632812 12.191406 13.632812 C 12.164062 13.632812 12.144531 13.640625 12.144531 13.65625 C 12.144531 13.667969 12.0625 13.714844 11.964844 13.761719 C 11.867188 13.808594 11.78125 13.859375 11.773438 13.871094 C 11.765625 13.886719 11.738281 13.894531 11.714844 13.894531 C 11.691406 13.894531 11.652344 13.917969 11.628906 13.945312 C 11.605469 13.96875 11.570312 13.992188 11.550781 13.992188 C 11.53125 13.992188 11.488281 14.011719 11.453125 14.039062 C 11.421875 14.066406 11.378906 14.089844 11.359375 14.089844 C 11.339844 14.089844 11.296875 14.109375 11.261719 14.136719 C 11.230469 14.164062 11.1875 14.183594 11.167969 14.183594 C 11.152344 14.183594 11.09375 14.207031 11.046875 14.230469 C 10.996094 14.257812 10.941406 14.28125 10.925781 14.28125 C 10.910156 14.28125 10.863281 14.300781 10.820312 14.328125 C 10.773438 14.355469 10.71875 14.375 10.6875 14.375 C 10.660156 14.375 10.625 14.390625 10.609375 14.410156 C 10.46875 14.582031 10.296875 14.371094 10.292969 14.027344 C 10.292969 13.894531 10.285156 13.652344 10.273438 13.488281 C 10.257812 13.1875 10.289062 9.445312 10.308594 9.390625 C 10.324219 9.339844 10.554688 9.351562 10.625 9.40625 "/>
<path style=" stroke:none;fill-rule:evenodd;fill:rgb(92.54902%,10.980392%,13.72549%);fill-opacity:1;" d="M 10.535156 1.128906 C 10.511719 1.171875 10.484375 1.175781 10.210938 1.175781 C 9.9375 1.175781 9.914062 1.179688 9.898438 1.222656 C 9.886719 1.265625 9.863281 1.273438 9.683594 1.273438 C 9.507812 1.273438 9.476562 1.277344 9.449219 1.320312 C 9.425781 1.359375 9.394531 1.367188 9.246094 1.367188 C 9.097656 1.367188 9.074219 1.375 9.058594 1.414062 C 9.046875 1.457031 9.023438 1.464844 8.914062 1.464844 C 8.820312 1.464844 8.777344 1.472656 8.769531 1.5 C 8.757812 1.523438 8.722656 1.535156 8.664062 1.535156 C 8.546875 1.535156 8.496094 1.554688 8.496094 1.597656 C 8.496094 1.625 8.460938 1.632812 8.363281 1.632812 C 8.246094 1.632812 8.226562 1.640625 8.214844 1.679688 C 8.203125 1.71875 8.183594 1.726562 8.085938 1.726562 C 7.996094 1.726562 7.960938 1.738281 7.9375 1.777344 C 7.917969 1.808594 7.882812 1.824219 7.828125 1.824219 C 7.769531 1.824219 7.746094 1.835938 7.734375 1.871094 C 7.726562 1.90625 7.703125 1.921875 7.648438 1.921875 C 7.535156 1.921875 7.464844 1.945312 7.464844 1.984375 C 7.464844 2.003906 7.433594 2.015625 7.378906 2.015625 C 7.3125 2.015625 7.289062 2.027344 7.277344 2.0625 C 7.269531 2.101562 7.246094 2.113281 7.183594 2.113281 C 7.121094 2.113281 7.097656 2.125 7.085938 2.160156 C 7.078125 2.195312 7.054688 2.207031 6.992188 2.207031 C 6.925781 2.207031 6.90625 2.21875 6.894531 2.257812 C 6.886719 2.292969 6.863281 2.304688 6.804688 2.304688 C 6.746094 2.304688 6.71875 2.316406 6.707031 2.351562 C 6.699219 2.378906 6.671875 2.398438 6.648438 2.398438 C 6.578125 2.398438 6.527344 2.425781 6.527344 2.460938 C 6.527344 2.480469 6.507812 2.496094 6.480469 2.496094 C 6.453125 2.496094 6.433594 2.511719 6.433594 2.527344 C 6.433594 2.546875 6.394531 2.566406 6.335938 2.578125 C 6.273438 2.585938 6.238281 2.605469 6.238281 2.628906 C 6.238281 2.648438 6.21875 2.664062 6.191406 2.664062 C 6.164062 2.664062 6.121094 2.6875 6.097656 2.710938 C 6.070312 2.738281 6.03125 2.761719 6.011719 2.761719 C 5.988281 2.761719 5.964844 2.78125 5.957031 2.808594 C 5.953125 2.835938 5.925781 2.855469 5.902344 2.855469 C 5.835938 2.855469 5.785156 2.882812 5.785156 2.917969 C 5.785156 2.9375 5.761719 2.953125 5.734375 2.953125 C 5.703125 2.953125 5.679688 2.972656 5.671875 3 C 5.664062 3.027344 5.636719 3.046875 5.613281 3.046875 C 5.589844 3.046875 5.554688 3.070312 5.539062 3.097656 C 5.523438 3.121094 5.484375 3.144531 5.453125 3.144531 C 5.417969 3.144531 5.398438 3.15625 5.398438 3.191406 C 5.398438 3.222656 5.382812 3.238281 5.351562 3.238281 C 5.320312 3.238281 5.304688 3.257812 5.304688 3.289062 C 5.304688 3.316406 5.289062 3.335938 5.261719 3.335938 C 5.238281 3.335938 5.207031 3.359375 5.191406 3.382812 C 5.171875 3.410156 5.132812 3.433594 5.097656 3.433594 C 5.054688 3.433594 5.03125 3.449219 5.023438 3.480469 C 5.015625 3.507812 4.988281 3.527344 4.964844 3.527344 C 4.941406 3.527344 4.921875 3.542969 4.921875 3.5625 C 4.921875 3.582031 4.902344 3.601562 4.882812 3.601562 C 4.859375 3.601562 4.835938 3.621094 4.832031 3.648438 C 4.824219 3.675781 4.800781 3.695312 4.78125 3.695312 C 4.761719 3.695312 4.742188 3.71875 4.734375 3.742188 C 4.726562 3.769531 4.707031 3.792969 4.6875 3.792969 C 4.667969 3.792969 4.644531 3.8125 4.640625 3.839844 C 4.632812 3.867188 4.613281 3.886719 4.59375 3.886719 C 4.578125 3.886719 4.550781 3.910156 4.535156 3.933594 C 4.523438 3.960938 4.488281 3.988281 4.460938 3.996094 C 4.433594 4.007812 4.371094 4.050781 4.328125 4.09375 C 4.28125 4.140625 4.234375 4.175781 4.222656 4.175781 C 4.210938 4.175781 4.191406 4.195312 4.183594 4.214844 C 4.175781 4.234375 4.132812 4.289062 4.089844 4.335938 C 4.042969 4.378906 4.007812 4.421875 4.007812 4.429688 C 4.007812 4.4375 3.980469 4.476562 3.949219 4.507812 C 3.808594 4.652344 3.792969 4.675781 3.792969 4.699219 C 3.792969 4.710938 3.769531 4.726562 3.742188 4.734375 C 3.71875 4.742188 3.695312 4.761719 3.695312 4.78125 C 3.695312 4.800781 3.675781 4.824219 3.648438 4.832031 C 3.621094 4.835938 3.601562 4.859375 3.601562 4.882812 C 3.601562 4.902344 3.582031 4.921875 3.5625 4.921875 C 3.542969 4.921875 3.527344 4.941406 3.527344 4.96875 C 3.527344 5 3.511719 5.015625 3.480469 5.015625 C 3.445312 5.015625 3.433594 5.03125 3.433594 5.074219 C 3.433594 5.109375 3.417969 5.136719 3.398438 5.136719 C 3.363281 5.136719 3.335938 5.1875 3.335938 5.257812 C 3.335938 5.289062 3.320312 5.304688 3.289062 5.304688 C 3.257812 5.304688 3.238281 5.320312 3.238281 5.351562 C 3.238281 5.382812 3.222656 5.398438 3.191406 5.398438 C 3.164062 5.398438 3.144531 5.417969 3.144531 5.4375 C 3.144531 5.457031 3.121094 5.492188 3.097656 5.519531 C 3.070312 5.546875 3.046875 5.589844 3.046875 5.617188 C 3.046875 5.644531 3.03125 5.664062 3.011719 5.664062 C 2.992188 5.664062 2.96875 5.683594 2.957031 5.707031 C 2.949219 5.730469 2.921875 5.761719 2.898438 5.78125 C 2.875 5.796875 2.855469 5.839844 2.855469 5.878906 C 2.855469 5.925781 2.839844 5.949219 2.808594 5.957031 C 2.78125 5.964844 2.761719 5.988281 2.761719 6.007812 C 2.761719 6.027344 2.746094 6.050781 2.726562 6.054688 C 2.707031 6.0625 2.683594 6.109375 2.675781 6.15625 C 2.664062 6.203125 2.644531 6.238281 2.625 6.238281 C 2.605469 6.238281 2.585938 6.273438 2.578125 6.3125 C 2.570312 6.351562 2.546875 6.394531 2.527344 6.410156 C 2.511719 6.425781 2.496094 6.457031 2.496094 6.484375 C 2.496094 6.511719 2.480469 6.527344 2.449219 6.527344 C 2.410156 6.527344 2.398438 6.542969 2.398438 6.609375 C 2.398438 6.671875 2.386719 6.695312 2.351562 6.703125 C 2.316406 6.710938 2.304688 6.734375 2.304688 6.800781 C 2.304688 6.871094 2.296875 6.886719 2.257812 6.886719 C 2.214844 6.886719 2.207031 6.902344 2.207031 6.984375 C 2.207031 7.0625 2.199219 7.078125 2.160156 7.078125 C 2.121094 7.078125 2.113281 7.097656 2.113281 7.175781 C 2.113281 7.257812 2.105469 7.273438 2.0625 7.273438 C 2.023438 7.273438 2.015625 7.289062 2.015625 7.363281 C 2.015625 7.4375 2.003906 7.460938 1.96875 7.472656 C 1.933594 7.480469 1.921875 7.503906 1.921875 7.558594 C 1.921875 7.601562 1.898438 7.652344 1.871094 7.679688 C 1.839844 7.710938 1.824219 7.761719 1.824219 7.820312 C 1.824219 7.894531 1.8125 7.917969 1.777344 7.925781 C 1.738281 7.9375 1.726562 7.960938 1.726562 8.027344 C 1.726562 8.082031 1.707031 8.140625 1.679688 8.175781 C 1.652344 8.210938 1.632812 8.269531 1.632812 8.3125 C 1.632812 8.351562 1.613281 8.402344 1.59375 8.425781 C 1.570312 8.449219 1.546875 8.523438 1.542969 8.585938 C 1.535156 8.648438 1.515625 8.714844 1.496094 8.730469 C 1.476562 8.75 1.464844 8.820312 1.464844 8.90625 C 1.464844 9.03125 1.457031 9.046875 1.414062 9.046875 C 1.371094 9.046875 1.367188 9.0625 1.367188 9.238281 C 1.367188 9.414062 1.363281 9.433594 1.320312 9.433594 C 1.277344 9.433594 1.273438 9.449219 1.273438 9.65625 C 1.273438 9.863281 1.269531 9.882812 1.222656 9.894531 C 1.179688 9.90625 1.175781 9.925781 1.175781 10.183594 C 1.175781 10.4375 1.171875 10.460938 1.128906 10.472656 C 1.050781 10.492188 1.050781 13.414062 1.128906 13.433594 C 1.171875 13.445312 1.175781 13.464844 1.175781 13.722656 C 1.175781 13.976562 1.179688 13.996094 1.222656 14.007812 C 1.269531 14.019531 1.273438 14.042969 1.273438 14.246094 C 1.273438 14.457031 1.277344 14.472656 1.320312 14.472656 C 1.363281 14.472656 1.367188 14.488281 1.367188 14.664062 C 1.367188 14.839844 1.371094 14.855469 1.414062 14.855469 C 1.457031 14.855469 1.464844 14.871094 1.464844 15 C 1.464844 15.085938 1.476562 15.152344 1.496094 15.171875 C 1.515625 15.191406 1.535156 15.257812 1.542969 15.320312 C 1.546875 15.382812 1.570312 15.453125 1.59375 15.476562 C 1.613281 15.5 1.632812 15.550781 1.632812 15.59375 C 1.632812 15.632812 1.652344 15.691406 1.679688 15.726562 C 1.707031 15.761719 1.726562 15.824219 1.726562 15.875 C 1.726562 15.945312 1.738281 15.96875 1.777344 15.976562 C 1.8125 15.988281 1.824219 16.011719 1.824219 16.082031 C 1.824219 16.144531 1.839844 16.191406 1.871094 16.222656 C 1.898438 16.25 1.921875 16.304688 1.921875 16.347656 C 1.921875 16.398438 1.933594 16.425781 1.96875 16.433594 C 2.003906 16.441406 2.015625 16.464844 2.015625 16.539062 C 2.015625 16.617188 2.023438 16.632812 2.0625 16.632812 C 2.105469 16.632812 2.113281 16.648438 2.113281 16.726562 C 2.113281 16.808594 2.121094 16.824219 2.160156 16.824219 C 2.199219 16.824219 2.207031 16.839844 2.207031 16.921875 C 2.207031 17 2.214844 17.015625 2.257812 17.015625 C 2.296875 17.015625 2.304688 17.03125 2.304688 17.101562 C 2.304688 17.167969 2.316406 17.191406 2.351562 17.199219 C 2.386719 17.210938 2.398438 17.234375 2.398438 17.292969 C 2.398438 17.359375 2.410156 17.375 2.449219 17.375 C 2.484375 17.375 2.496094 17.390625 2.496094 17.433594 C 2.496094 17.464844 2.511719 17.496094 2.527344 17.503906 C 2.546875 17.511719 2.566406 17.550781 2.574219 17.589844 C 2.585938 17.628906 2.605469 17.664062 2.625 17.664062 C 2.644531 17.664062 2.664062 17.699219 2.675781 17.75 C 2.683594 17.796875 2.707031 17.839844 2.726562 17.847656 C 2.746094 17.855469 2.761719 17.882812 2.761719 17.90625 C 2.761719 17.9375 2.777344 17.953125 2.808594 17.953125 C 2.847656 17.953125 2.855469 17.96875 2.855469 18.039062 C 2.855469 18.101562 2.867188 18.128906 2.902344 18.136719 C 2.925781 18.144531 2.953125 18.167969 2.960938 18.195312 C 2.964844 18.21875 2.988281 18.238281 3.011719 18.238281 C 3.03125 18.238281 3.046875 18.261719 3.046875 18.289062 C 3.046875 18.3125 3.070312 18.359375 3.097656 18.382812 C 3.121094 18.410156 3.144531 18.449219 3.144531 18.46875 C 3.144531 18.488281 3.164062 18.503906 3.191406 18.503906 C 3.222656 18.503906 3.238281 18.519531 3.238281 18.550781 C 3.238281 18.582031 3.257812 18.601562 3.289062 18.601562 C 3.324219 18.601562 3.335938 18.617188 3.335938 18.660156 C 3.335938 18.695312 3.359375 18.738281 3.382812 18.761719 C 3.410156 18.785156 3.433594 18.820312 3.433594 18.84375 C 3.433594 18.871094 3.449219 18.886719 3.480469 18.886719 C 3.511719 18.886719 3.527344 18.902344 3.527344 18.9375 C 3.527344 18.960938 3.542969 18.984375 3.5625 18.984375 C 3.582031 18.984375 3.601562 19 3.601562 19.023438 C 3.601562 19.042969 3.621094 19.066406 3.648438 19.074219 C 3.675781 19.078125 3.695312 19.101562 3.695312 19.121094 C 3.695312 19.140625 3.71875 19.164062 3.742188 19.167969 C 3.769531 19.175781 3.792969 19.203125 3.792969 19.226562 C 3.792969 19.25 3.808594 19.273438 3.828125 19.273438 C 3.847656 19.273438 3.871094 19.289062 3.878906 19.3125 C 3.886719 19.335938 3.914062 19.378906 3.941406 19.402344 C 4.050781 19.523438 4.105469 19.589844 4.105469 19.609375 C 4.105469 19.621094 4.121094 19.632812 4.140625 19.632812 C 4.160156 19.632812 4.175781 19.648438 4.175781 19.671875 C 4.175781 19.691406 4.199219 19.714844 4.222656 19.722656 C 4.25 19.726562 4.273438 19.746094 4.273438 19.761719 C 4.273438 19.777344 4.300781 19.804688 4.332031 19.820312 C 4.363281 19.835938 4.390625 19.855469 4.390625 19.867188 C 4.390625 19.882812 4.417969 19.898438 4.453125 19.90625 C 4.484375 19.914062 4.523438 19.941406 4.535156 19.96875 C 4.550781 19.996094 4.578125 20.015625 4.597656 20.015625 C 4.617188 20.015625 4.632812 20.035156 4.632812 20.054688 C 4.632812 20.074219 4.652344 20.097656 4.679688 20.105469 C 4.707031 20.113281 4.726562 20.132812 4.726562 20.152344 C 4.726562 20.171875 4.75 20.195312 4.777344 20.199219 C 4.800781 20.207031 4.824219 20.230469 4.824219 20.25 C 4.824219 20.269531 4.84375 20.289062 4.871094 20.296875 C 4.898438 20.304688 4.921875 20.324219 4.921875 20.339844 C 4.921875 20.359375 4.941406 20.378906 4.96875 20.386719 C 4.996094 20.394531 5.015625 20.414062 5.015625 20.425781 C 5.015625 20.4375 5.058594 20.464844 5.113281 20.488281 C 5.164062 20.507812 5.207031 20.535156 5.207031 20.546875 C 5.207031 20.558594 5.230469 20.566406 5.257812 20.566406 C 5.289062 20.566406 5.304688 20.585938 5.304688 20.617188 C 5.304688 20.648438 5.320312 20.664062 5.351562 20.664062 C 5.382812 20.664062 5.398438 20.679688 5.398438 20.710938 C 5.398438 20.746094 5.417969 20.761719 5.453125 20.761719 C 5.484375 20.761719 5.523438 20.78125 5.539062 20.808594 C 5.554688 20.835938 5.589844 20.855469 5.617188 20.855469 C 5.644531 20.855469 5.664062 20.871094 5.664062 20.894531 C 5.664062 20.914062 5.691406 20.9375 5.71875 20.949219 C 5.75 20.960938 5.785156 20.988281 5.792969 21.011719 C 5.800781 21.03125 5.835938 21.046875 5.878906 21.046875 C 5.9375 21.046875 5.953125 21.058594 5.953125 21.097656 C 5.953125 21.132812 5.96875 21.144531 6.011719 21.144531 C 6.046875 21.144531 6.070312 21.15625 6.070312 21.179688 C 6.070312 21.199219 6.105469 21.21875 6.152344 21.230469 C 6.207031 21.238281 6.238281 21.261719 6.246094 21.289062 C 6.257812 21.324219 6.28125 21.335938 6.347656 21.335938 C 6.40625 21.335938 6.433594 21.347656 6.433594 21.371094 C 6.433594 21.394531 6.449219 21.417969 6.472656 21.425781 C 6.496094 21.433594 6.523438 21.453125 6.535156 21.472656 C 6.546875 21.488281 6.585938 21.503906 6.625 21.503906 C 6.671875 21.503906 6.699219 21.519531 6.707031 21.550781 C 6.71875 21.585938 6.746094 21.601562 6.804688 21.601562 C 6.863281 21.601562 6.886719 21.613281 6.894531 21.648438 C 6.90625 21.683594 6.925781 21.695312 6.992188 21.695312 C 7.0625 21.695312 7.078125 21.703125 7.078125 21.742188 C 7.078125 21.785156 7.097656 21.792969 7.175781 21.792969 C 7.257812 21.792969 7.273438 21.800781 7.273438 21.839844 C 7.273438 21.878906 7.289062 21.886719 7.367188 21.886719 C 7.433594 21.886719 7.464844 21.898438 7.464844 21.921875 C 7.464844 21.964844 7.515625 21.984375 7.632812 21.984375 C 7.703125 21.984375 7.726562 21.996094 7.734375 22.03125 C 7.746094 22.070312 7.769531 22.078125 7.832031 22.078125 C 7.890625 22.078125 7.921875 22.089844 7.921875 22.113281 C 7.921875 22.15625 7.972656 22.175781 8.097656 22.175781 C 8.183594 22.175781 8.203125 22.183594 8.214844 22.222656 C 8.226562 22.265625 8.246094 22.273438 8.359375 22.273438 C 8.46875 22.273438 8.492188 22.28125 8.503906 22.320312 C 8.511719 22.359375 8.535156 22.367188 8.636719 22.367188 C 8.726562 22.367188 8.761719 22.378906 8.761719 22.402344 C 8.761719 22.445312 8.8125 22.464844 8.941406 22.464844 C 9.015625 22.464844 9.054688 22.476562 9.0625 22.5 C 9.074219 22.527344 9.117188 22.535156 9.25 22.535156 C 9.394531 22.535156 9.425781 22.542969 9.449219 22.585938 C 9.476562 22.625 9.507812 22.632812 9.683594 22.632812 C 9.863281 22.632812 9.886719 22.636719 9.898438 22.679688 C 9.914062 22.722656 9.9375 22.726562 10.207031 22.726562 C 10.472656 22.726562 10.503906 22.730469 10.53125 22.777344 C 10.578125 22.851562 13.421875 22.851562 13.46875 22.777344 C 13.496094 22.730469 13.527344 22.726562 13.792969 22.726562 C 14.0625 22.726562 14.085938 22.722656 14.101562 22.679688 C 14.113281 22.636719 14.136719 22.632812 14.316406 22.632812 C 14.492188 22.632812 14.523438 22.625 14.550781 22.585938 C 14.574219 22.542969 14.605469 22.535156 14.75 22.535156 C 14.882812 22.535156 14.925781 22.527344 14.9375 22.5 C 14.945312 22.476562 14.984375 22.464844 15.058594 22.464844 C 15.1875 22.464844 15.238281 22.445312 15.238281 22.402344 C 15.238281 22.378906 15.273438 22.367188 15.363281 22.367188 C 15.464844 22.367188 15.488281 22.359375 15.496094 22.320312 C 15.507812 22.28125 15.53125 22.273438 15.640625 22.273438 C 15.753906 22.273438 15.773438 22.265625 15.785156 22.222656 C 15.796875 22.183594 15.816406 22.175781 15.902344 22.175781 C 16.027344 22.175781 16.078125 22.15625 16.078125 22.113281 C 16.078125 22.089844 16.109375 22.078125 16.167969 22.078125 C 16.230469 22.078125 16.253906 22.070312 16.265625 22.03125 C 16.273438 21.996094 16.296875 21.984375 16.367188 21.984375 C 16.484375 21.984375 16.535156 21.964844 16.535156 21.921875 C 16.535156 21.898438 16.566406 21.886719 16.632812 21.886719 C 16.710938 21.886719 16.726562 21.878906 16.726562 21.839844 C 16.726562 21.800781 16.742188 21.792969 16.824219 21.792969 C 16.902344 21.792969 16.921875 21.785156 16.921875 21.742188 C 16.921875 21.703125 16.9375 21.695312 17.007812 21.695312 C 17.074219 21.695312 17.09375 21.683594 17.105469 21.648438 C 17.113281 21.613281 17.136719 21.601562 17.195312 21.601562 C 17.253906 21.601562 17.28125 21.585938 17.292969 21.550781 C 17.304688 21.519531 17.328125 21.503906 17.378906 21.503906 C 17.417969 21.503906 17.457031 21.488281 17.464844 21.46875 C 17.472656 21.449219 17.496094 21.433594 17.523438 21.433594 C 17.550781 21.433594 17.566406 21.414062 17.566406 21.382812 C 17.566406 21.34375 17.585938 21.335938 17.652344 21.335938 C 17.71875 21.335938 17.742188 21.324219 17.753906 21.289062 C 17.761719 21.261719 17.792969 21.238281 17.847656 21.230469 C 17.894531 21.21875 17.929688 21.199219 17.929688 21.179688 C 17.929688 21.15625 17.953125 21.144531 17.988281 21.144531 C 18.03125 21.144531 18.046875 21.132812 18.046875 21.097656 C 18.046875 21.058594 18.0625 21.046875 18.121094 21.046875 C 18.164062 21.046875 18.199219 21.03125 18.207031 21.011719 C 18.214844 20.988281 18.25 20.960938 18.28125 20.949219 C 18.308594 20.9375 18.335938 20.914062 18.335938 20.894531 C 18.335938 20.871094 18.355469 20.855469 18.382812 20.855469 C 18.410156 20.855469 18.445312 20.835938 18.460938 20.808594 C 18.476562 20.78125 18.515625 20.761719 18.546875 20.761719 C 18.582031 20.761719 18.601562 20.746094 18.601562 20.710938 C 18.601562 20.679688 18.617188 20.664062 18.648438 20.664062 C 18.679688 20.664062 18.695312 20.648438 18.695312 20.617188 C 18.695312 20.585938 18.710938 20.566406 18.742188 20.566406 C 18.769531 20.566406 18.792969 20.558594 18.792969 20.546875 C 18.792969 20.535156 18.835938 20.507812 18.886719 20.488281 C 18.941406 20.464844 18.984375 20.4375 18.984375 20.425781 C 18.984375 20.414062 19.003906 20.394531 19.03125 20.386719 C 19.058594 20.378906 19.078125 20.359375 19.078125 20.339844 C 19.078125 20.324219 19.101562 20.304688 19.128906 20.296875 C 19.15625 20.289062 19.175781 20.269531 19.175781 20.25 C 19.175781 20.230469 19.199219 20.207031 19.222656 20.199219 C 19.25 20.195312 19.273438 20.171875 19.273438 20.152344 C 19.273438 20.132812 19.292969 20.113281 19.320312 20.105469 C 19.347656 20.097656 19.367188 20.074219 19.367188 20.054688 C 19.367188 20.03125 19.386719 20.015625 19.414062 20.015625 C 19.441406 20.015625 19.464844 20 19.464844 19.980469 C 19.464844 19.960938 19.492188 19.929688 19.53125 19.914062 C 19.566406 19.898438 19.613281 19.863281 19.636719 19.84375 C 19.660156 19.820312 19.691406 19.800781 19.703125 19.800781 C 19.71875 19.800781 19.726562 19.785156 19.726562 19.765625 C 19.726562 19.75 19.75 19.726562 19.777344 19.722656 C 19.800781 19.714844 19.824219 19.691406 19.824219 19.671875 C 19.824219 19.648438 19.839844 19.632812 19.859375 19.632812 C 19.878906 19.632812 19.894531 19.621094 19.894531 19.609375 C 19.894531 19.589844 19.949219 19.523438 20.058594 19.402344 C 20.085938 19.378906 20.113281 19.335938 20.121094 19.3125 C 20.128906 19.289062 20.152344 19.273438 20.171875 19.273438 C 20.191406 19.273438 20.207031 19.25 20.207031 19.226562 C 20.207031 19.203125 20.230469 19.175781 20.257812 19.167969 C 20.28125 19.164062 20.304688 19.140625 20.304688 19.121094 C 20.304688 19.101562 20.324219 19.078125 20.351562 19.074219 C 20.378906 19.066406 20.398438 19.042969 20.398438 19.023438 C 20.398438 19.003906 20.421875 18.984375 20.449219 18.976562 C 20.472656 18.96875 20.496094 18.949219 20.496094 18.925781 C 20.496094 18.90625 20.511719 18.886719 20.53125 18.886719 C 20.550781 18.886719 20.566406 18.867188 20.566406 18.84375 C 20.566406 18.820312 20.589844 18.785156 20.617188 18.761719 C 20.640625 18.738281 20.664062 18.695312 20.664062 18.660156 C 20.664062 18.617188 20.675781 18.601562 20.710938 18.601562 C 20.742188 18.601562 20.761719 18.582031 20.761719 18.550781 C 20.761719 18.519531 20.777344 18.503906 20.808594 18.503906 C 20.835938 18.503906 20.855469 18.488281 20.855469 18.46875 C 20.855469 18.449219 20.878906 18.410156 20.902344 18.382812 C 20.929688 18.359375 20.953125 18.3125 20.953125 18.289062 C 20.953125 18.261719 20.96875 18.238281 20.988281 18.238281 C 21.011719 18.238281 21.035156 18.21875 21.039062 18.195312 C 21.046875 18.167969 21.074219 18.144531 21.097656 18.136719 C 21.132812 18.128906 21.144531 18.101562 21.144531 18.039062 C 21.144531 17.96875 21.152344 17.953125 21.191406 17.953125 C 21.222656 17.953125 21.238281 17.9375 21.238281 17.90625 C 21.238281 17.882812 21.253906 17.855469 21.273438 17.847656 C 21.292969 17.839844 21.316406 17.796875 21.324219 17.75 C 21.335938 17.699219 21.355469 17.664062 21.386719 17.65625 C 21.417969 17.648438 21.433594 17.625 21.433594 17.582031 C 21.433594 17.546875 21.449219 17.511719 21.46875 17.503906 C 21.488281 17.496094 21.503906 17.464844 21.503906 17.433594 C 21.503906 17.390625 21.515625 17.375 21.550781 17.375 C 21.589844 17.375 21.601562 17.359375 21.601562 17.292969 C 21.601562 17.234375 21.613281 17.210938 21.648438 17.199219 C 21.683594 17.191406 21.695312 17.167969 21.695312 17.101562 C 21.695312 17.03125 21.703125 17.015625 21.742188 17.015625 C 21.785156 17.015625 21.792969 17 21.792969 16.921875 C 21.792969 16.839844 21.800781 16.824219 21.839844 16.824219 C 21.878906 16.824219 21.886719 16.808594 21.886719 16.726562 C 21.886719 16.648438 21.894531 16.632812 21.9375 16.632812 C 21.976562 16.632812 21.984375 16.617188 21.984375 16.539062 C 21.984375 16.464844 21.996094 16.441406 22.03125 16.433594 C 22.066406 16.425781 22.078125 16.398438 22.078125 16.347656 C 22.078125 16.304688 22.101562 16.25 22.128906 16.222656 C 22.160156 16.191406 22.175781 16.144531 22.175781 16.082031 C 22.175781 16.011719 22.1875 15.988281 22.222656 15.976562 C 22.261719 15.96875 22.273438 15.945312 22.273438 15.871094 C 22.273438 15.804688 22.289062 15.761719 22.320312 15.730469 C 22.351562 15.703125 22.367188 15.65625 22.367188 15.605469 C 22.367188 15.558594 22.390625 15.496094 22.414062 15.460938 C 22.445312 15.425781 22.464844 15.363281 22.464844 15.308594 C 22.464844 15.253906 22.480469 15.195312 22.5 15.175781 C 22.523438 15.152344 22.535156 15.09375 22.535156 15 C 22.535156 14.871094 22.542969 14.855469 22.585938 14.855469 C 22.628906 14.855469 22.632812 14.839844 22.632812 14.664062 C 22.632812 14.488281 22.636719 14.472656 22.679688 14.472656 C 22.722656 14.472656 22.726562 14.457031 22.726562 14.246094 C 22.726562 14.042969 22.730469 14.019531 22.777344 14.007812 C 22.820312 13.996094 22.824219 13.976562 22.824219 13.722656 C 22.824219 13.464844 22.828125 13.445312 22.871094 13.433594 C 22.917969 13.421875 22.921875 13.398438 22.921875 11.953125 C 22.921875 10.503906 22.917969 10.484375 22.871094 10.472656 C 22.828125 10.460938 22.824219 10.4375 22.824219 10.183594 C 22.824219 9.925781 22.820312 9.90625 22.777344 9.894531 C 22.730469 9.882812 22.726562 9.863281 22.726562 9.65625 C 22.726562 9.449219 22.722656 9.433594 22.679688 9.433594 C 22.636719 9.433594 22.632812 9.414062 22.632812 9.238281 C 22.632812 9.0625 22.628906 9.046875 22.585938 9.046875 C 22.542969 9.046875 22.535156 9.03125 22.535156 8.90625 C 22.535156 8.8125 22.523438 8.75 22.5 8.726562 C 22.480469 8.707031 22.464844 8.648438 22.464844 8.597656 C 22.464844 8.539062 22.445312 8.480469 22.414062 8.441406 C 22.390625 8.40625 22.367188 8.347656 22.367188 8.308594 C 22.367188 8.269531 22.347656 8.210938 22.320312 8.175781 C 22.292969 8.140625 22.273438 8.082031 22.273438 8.027344 C 22.273438 7.960938 22.261719 7.9375 22.222656 7.925781 C 22.1875 7.917969 22.175781 7.894531 22.175781 7.820312 C 22.175781 7.761719 22.160156 7.710938 22.128906 7.679688 C 22.101562 7.652344 22.078125 7.601562 22.078125 7.558594 C 22.078125 7.503906 22.066406 7.480469 22.03125 7.472656 C 21.996094 7.460938 21.984375 7.4375 21.984375 7.363281 C 21.984375 7.289062 21.976562 7.273438 21.9375 7.273438 C 21.894531 7.273438 21.886719 7.257812 21.886719 7.175781 C 21.886719 7.097656 21.878906 7.078125 21.839844 7.078125 C 21.800781 7.078125 21.792969 7.0625 21.792969 6.984375 C 21.792969 6.902344 21.785156 6.886719 21.742188 6.886719 C 21.703125 6.886719 21.695312 6.871094 21.695312 6.800781 C 21.695312 6.734375 21.683594 6.710938 21.648438 6.703125 C 21.613281 6.695312 21.601562 6.671875 21.601562 6.609375 C 21.601562 6.542969 21.589844 6.527344 21.550781 6.527344 C 21.519531 6.527344 21.503906 6.511719 21.503906 6.484375 C 21.503906 6.457031 21.488281 6.425781 21.46875 6.40625 C 21.449219 6.390625 21.433594 6.351562 21.433594 6.320312 C 21.433594 6.28125 21.414062 6.253906 21.386719 6.246094 C 21.355469 6.238281 21.335938 6.207031 21.324219 6.152344 C 21.316406 6.105469 21.292969 6.0625 21.277344 6.058594 C 21.257812 6.050781 21.238281 6.023438 21.234375 6 C 21.226562 5.972656 21.203125 5.953125 21.183594 5.953125 C 21.15625 5.953125 21.144531 5.929688 21.144531 5.882812 C 21.144531 5.839844 21.125 5.796875 21.101562 5.78125 C 21.078125 5.761719 21.050781 5.730469 21.042969 5.707031 C 21.03125 5.683594 21.007812 5.664062 20.988281 5.664062 C 20.96875 5.664062 20.953125 5.644531 20.953125 5.617188 C 20.953125 5.589844 20.929688 5.546875 20.902344 5.519531 C 20.878906 5.492188 20.855469 5.457031 20.855469 5.4375 C 20.855469 5.417969 20.835938 5.398438 20.808594 5.398438 C 20.777344 5.398438 20.761719 5.382812 20.761719 5.351562 C 20.761719 5.320312 20.742188 5.304688 20.710938 5.304688 C 20.679688 5.304688 20.664062 5.289062 20.664062 5.257812 C 20.664062 5.1875 20.636719 5.136719 20.601562 5.136719 C 20.582031 5.136719 20.566406 5.109375 20.566406 5.074219 C 20.566406 5.039062 20.554688 5.015625 20.535156 5.015625 C 20.515625 5.015625 20.492188 4.996094 20.484375 4.96875 C 20.476562 4.941406 20.453125 4.921875 20.4375 4.921875 C 20.417969 4.921875 20.398438 4.898438 20.394531 4.871094 C 20.386719 4.84375 20.363281 4.824219 20.34375 4.824219 C 20.324219 4.824219 20.304688 4.800781 20.296875 4.777344 C 20.289062 4.75 20.265625 4.726562 20.246094 4.726562 C 20.226562 4.726562 20.207031 4.714844 20.207031 4.703125 C 20.207031 4.6875 20.160156 4.628906 20.101562 4.570312 C 20.039062 4.511719 19.992188 4.453125 19.992188 4.441406 C 19.992188 4.425781 19.953125 4.375 19.90625 4.332031 C 19.863281 4.285156 19.824219 4.234375 19.824219 4.222656 C 19.824219 4.210938 19.804688 4.191406 19.785156 4.183594 C 19.765625 4.175781 19.710938 4.132812 19.667969 4.089844 C 19.625 4.046875 19.566406 4.007812 19.539062 3.996094 C 19.511719 3.988281 19.476562 3.960938 19.464844 3.933594 C 19.449219 3.910156 19.421875 3.886719 19.40625 3.886719 C 19.386719 3.886719 19.367188 3.867188 19.359375 3.839844 C 19.355469 3.8125 19.332031 3.792969 19.308594 3.792969 C 19.289062 3.792969 19.273438 3.773438 19.273438 3.753906 C 19.273438 3.734375 19.25 3.710938 19.222656 3.703125 C 19.199219 3.695312 19.175781 3.675781 19.175781 3.65625 C 19.175781 3.636719 19.15625 3.613281 19.128906 3.605469 C 19.101562 3.601562 19.078125 3.578125 19.078125 3.5625 C 19.078125 3.542969 19.058594 3.527344 19.035156 3.527344 C 19.011719 3.527344 18.984375 3.507812 18.976562 3.480469 C 18.96875 3.449219 18.945312 3.433594 18.902344 3.433594 C 18.867188 3.433594 18.828125 3.410156 18.808594 3.382812 C 18.792969 3.359375 18.761719 3.335938 18.738281 3.335938 C 18.710938 3.335938 18.695312 3.316406 18.695312 3.289062 C 18.695312 3.257812 18.679688 3.238281 18.648438 3.238281 C 18.617188 3.238281 18.601562 3.222656 18.601562 3.191406 C 18.601562 3.15625 18.582031 3.144531 18.546875 3.144531 C 18.515625 3.144531 18.476562 3.121094 18.460938 3.097656 C 18.445312 3.070312 18.410156 3.046875 18.386719 3.046875 C 18.363281 3.046875 18.335938 3.027344 18.328125 3 C 18.320312 2.972656 18.296875 2.953125 18.265625 2.953125 C 18.238281 2.953125 18.214844 2.9375 18.214844 2.917969 C 18.214844 2.882812 18.164062 2.855469 18.097656 2.855469 C 18.074219 2.855469 18.046875 2.835938 18.042969 2.808594 C 18.035156 2.78125 18.011719 2.761719 17.988281 2.761719 C 17.96875 2.761719 17.929688 2.738281 17.902344 2.710938 C 17.878906 2.6875 17.835938 2.664062 17.808594 2.664062 C 17.78125 2.664062 17.761719 2.648438 17.761719 2.628906 C 17.761719 2.605469 17.726562 2.585938 17.664062 2.578125 C 17.605469 2.566406 17.566406 2.546875 17.566406 2.527344 C 17.566406 2.511719 17.546875 2.496094 17.519531 2.496094 C 17.492188 2.496094 17.472656 2.480469 17.472656 2.460938 C 17.472656 2.425781 17.421875 2.398438 17.351562 2.398438 C 17.328125 2.398438 17.300781 2.378906 17.292969 2.351562 C 17.28125 2.316406 17.253906 2.304688 17.195312 2.304688 C 17.136719 2.304688 17.113281 2.292969 17.105469 2.257812 C 17.09375 2.21875 17.074219 2.207031 17.007812 2.207031 C 16.945312 2.207031 16.921875 2.195312 16.914062 2.160156 C 16.902344 2.125 16.878906 2.113281 16.816406 2.113281 C 16.753906 2.113281 16.730469 2.101562 16.722656 2.0625 C 16.710938 2.027344 16.6875 2.015625 16.621094 2.015625 C 16.566406 2.015625 16.535156 2.003906 16.535156 1.984375 C 16.535156 1.945312 16.464844 1.921875 16.351562 1.921875 C 16.296875 1.921875 16.273438 1.90625 16.265625 1.871094 C 16.253906 1.835938 16.230469 1.824219 16.171875 1.824219 C 16.117188 1.824219 16.082031 1.808594 16.0625 1.777344 C 16.039062 1.738281 16.003906 1.726562 15.914062 1.726562 C 15.816406 1.726562 15.796875 1.71875 15.785156 1.679688 C 15.773438 1.640625 15.753906 1.632812 15.636719 1.632812 C 15.539062 1.632812 15.503906 1.625 15.503906 1.597656 C 15.503906 1.554688 15.453125 1.535156 15.335938 1.535156 C 15.277344 1.535156 15.242188 1.523438 15.230469 1.5 C 15.222656 1.472656 15.179688 1.464844 15.085938 1.464844 C 14.976562 1.464844 14.953125 1.457031 14.941406 1.414062 C 14.925781 1.375 14.902344 1.367188 14.753906 1.367188 C 14.605469 1.367188 14.574219 1.359375 14.550781 1.320312 C 14.523438 1.277344 14.492188 1.273438 14.316406 1.273438 C 14.136719 1.273438 14.113281 1.265625 14.101562 1.222656 C 14.085938 1.179688 14.0625 1.175781 13.789062 1.175781 C 13.515625 1.175781 13.488281 1.171875 13.464844 1.128906 C 13.4375 1.082031 13.414062 1.078125 12 1.078125 C 10.585938 1.078125 10.5625 1.082031 10.535156 1.128906 M 15.722656 6.109375 C 15.792969 6.128906 15.964844 6.15625 16.105469 6.164062 C 16.253906 6.175781 16.378906 6.195312 16.398438 6.210938 C 16.417969 6.226562 16.492188 6.25 16.558594 6.257812 C 16.628906 6.265625 16.699219 6.285156 16.714844 6.300781 C 16.730469 6.320312 16.785156 6.339844 16.832031 6.347656 C 16.878906 6.359375 16.933594 6.386719 16.957031 6.410156 C 16.980469 6.433594 17.011719 6.457031 17.023438 6.457031 C 17.035156 6.457031 17.066406 6.472656 17.085938 6.492188 C 17.105469 6.511719 17.179688 6.582031 17.25 6.644531 C 17.320312 6.710938 17.375 6.773438 17.375 6.785156 C 17.375 6.800781 17.390625 6.816406 17.40625 6.824219 C 17.445312 6.835938 17.664062 7.15625 17.664062 7.191406 C 17.664062 7.207031 17.679688 7.230469 17.699219 7.246094 C 17.71875 7.261719 17.738281 7.308594 17.75 7.351562 C 17.757812 7.394531 17.777344 7.445312 17.796875 7.464844 C 17.8125 7.484375 17.832031 7.546875 17.839844 7.609375 C 17.847656 7.667969 17.871094 7.75 17.890625 7.792969 C 17.945312 7.898438 17.9375 15.191406 17.882812 15.289062 C 17.859375 15.324219 17.84375 15.460938 17.832031 15.664062 C 17.824219 15.835938 17.808594 15.992188 17.792969 16.011719 C 17.777344 16.027344 17.761719 16.117188 17.75 16.210938 C 17.742188 16.300781 17.722656 16.390625 17.703125 16.414062 C 17.683594 16.433594 17.664062 16.503906 17.652344 16.566406 C 17.644531 16.632812 17.621094 16.6875 17.605469 16.695312 C 17.585938 16.703125 17.566406 16.75 17.558594 16.800781 C 17.550781 16.847656 17.527344 16.898438 17.507812 16.90625 C 17.488281 16.914062 17.472656 16.941406 17.472656 16.96875 C 17.472656 16.992188 17.449219 17.039062 17.425781 17.0625 C 17.398438 17.089844 17.375 17.117188 17.375 17.125 C 17.375 17.171875 17.007812 17.472656 16.953125 17.472656 C 16.941406 17.472656 16.886719 17.492188 16.835938 17.519531 C 16.785156 17.546875 16.71875 17.566406 16.695312 17.566406 C 16.667969 17.566406 16.628906 17.585938 16.609375 17.605469 C 16.585938 17.625 16.515625 17.648438 16.449219 17.65625 C 16.386719 17.664062 16.316406 17.6875 16.292969 17.703125 C 16.269531 17.726562 16.171875 17.742188 16.042969 17.75 C 15.925781 17.757812 15.792969 17.78125 15.753906 17.796875 C 15.65625 17.839844 9.21875 17.847656 9.011719 17.804688 C 8.945312 17.792969 8.753906 17.769531 8.585938 17.757812 C 8.390625 17.746094 8.257812 17.726562 8.222656 17.707031 C 8.195312 17.6875 8.09375 17.664062 7.996094 17.65625 C 7.898438 17.648438 7.800781 17.628906 7.777344 17.609375 C 7.757812 17.589844 7.6875 17.566406 7.621094 17.558594 C 7.554688 17.550781 7.492188 17.527344 7.480469 17.507812 C 7.46875 17.488281 7.425781 17.472656 7.382812 17.472656 C 7.339844 17.472656 7.273438 17.449219 7.242188 17.425781 C 7.207031 17.398438 7.160156 17.375 7.132812 17.375 C 7.105469 17.375 7.0625 17.355469 7.039062 17.328125 C 7.015625 17.304688 6.96875 17.277344 6.933594 17.269531 C 6.898438 17.257812 6.828125 17.214844 6.78125 17.171875 C 6.730469 17.125 6.683594 17.089844 6.679688 17.089844 C 6.667969 17.089844 6.480469 16.894531 6.40625 16.808594 C 6.324219 16.710938 6.269531 16.609375 6.25 16.53125 C 6.242188 16.488281 6.21875 16.429688 6.199219 16.40625 C 6.179688 16.375 6.167969 16.292969 6.167969 16.183594 C 6.167969 16.074219 6.152344 15.972656 6.125 15.90625 C 6.085938 15.808594 6.085938 15.566406 6.085938 11.988281 C 6.085938 8.410156 6.085938 8.164062 6.125 8.070312 C 6.152344 8.003906 6.167969 7.902344 6.167969 7.78125 C 6.167969 7.660156 6.179688 7.570312 6.207031 7.523438 C 6.226562 7.484375 6.25 7.40625 6.257812 7.347656 C 6.265625 7.292969 6.285156 7.238281 6.300781 7.230469 C 6.320312 7.226562 6.347656 7.183594 6.359375 7.136719 C 6.375 7.089844 6.46875 6.972656 6.585938 6.855469 C 6.757812 6.679688 6.8125 6.632812 6.957031 6.539062 C 6.976562 6.527344 7.011719 6.5 7.035156 6.480469 C 7.058594 6.460938 7.097656 6.429688 7.121094 6.40625 C 7.144531 6.386719 7.1875 6.359375 7.222656 6.34375 C 7.257812 6.328125 7.300781 6.304688 7.320312 6.289062 C 7.429688 6.222656 7.570312 6.167969 7.640625 6.167969 C 7.6875 6.167969 7.769531 6.148438 7.828125 6.121094 C 7.972656 6.054688 15.492188 6.042969 15.722656 6.109375 M 10.359375 9.425781 C 10.351562 9.433594 10.34375 10.484375 10.34375 11.757812 L 10.347656 14.074219 L 10.402344 14.21875 C 10.4375 14.316406 10.464844 14.359375 10.488281 14.355469 C 10.507812 14.351562 10.570312 14.335938 10.628906 14.320312 C 10.6875 14.308594 10.753906 14.285156 10.769531 14.265625 C 10.789062 14.246094 10.832031 14.230469 10.871094 14.230469 C 10.90625 14.230469 10.957031 14.210938 10.980469 14.183594 C 11.003906 14.15625 11.046875 14.136719 11.078125 14.136719 C 11.105469 14.136719 11.15625 14.113281 11.191406 14.089844 C 11.222656 14.0625 11.261719 14.039062 11.277344 14.039062 C 11.304688 14.039062 11.488281 13.945312 11.570312 13.886719 C 11.601562 13.867188 11.640625 13.847656 11.65625 13.847656 C 11.675781 13.847656 11.710938 13.828125 11.734375 13.800781 C 11.761719 13.773438 11.800781 13.753906 11.820312 13.753906 C 11.84375 13.753906 11.886719 13.730469 11.921875 13.703125 C 11.953125 13.675781 11.996094 13.65625 12.015625 13.65625 C 12.035156 13.65625 12.070312 13.632812 12.097656 13.609375 C 12.121094 13.582031 12.164062 13.558594 12.1875 13.558594 C 12.214844 13.558594 12.242188 13.542969 12.246094 13.527344 C 12.253906 13.507812 12.292969 13.484375 12.332031 13.476562 C 12.371094 13.46875 12.417969 13.445312 12.433594 13.425781 C 12.449219 13.40625 12.476562 13.390625 12.492188 13.390625 C 12.507812 13.390625 12.550781 13.371094 12.582031 13.34375 C 12.617188 13.316406 12.660156 13.296875 12.679688 13.296875 C 12.695312 13.296875 12.730469 13.273438 12.757812 13.246094 C 12.78125 13.222656 12.824219 13.199219 12.851562 13.199219 C 12.878906 13.199219 12.917969 13.179688 12.941406 13.152344 C 12.964844 13.125 13.003906 13.105469 13.027344 13.105469 C 13.050781 13.105469 13.085938 13.082031 13.109375 13.054688 C 13.132812 13.03125 13.179688 13.007812 13.210938 13.007812 C 13.246094 13.007812 13.273438 12.996094 13.273438 12.984375 C 13.273438 12.96875 13.3125 12.941406 13.359375 12.921875 C 13.40625 12.902344 13.460938 12.867188 13.480469 12.851562 C 13.5 12.832031 13.53125 12.816406 13.546875 12.816406 C 13.5625 12.816406 13.589844 12.800781 13.605469 12.78125 C 13.621094 12.761719 13.667969 12.742188 13.703125 12.730469 C 13.742188 12.722656 13.777344 12.703125 13.785156 12.6875 C 13.789062 12.667969 13.824219 12.648438 13.863281 12.636719 C 13.898438 12.628906 13.953125 12.601562 13.988281 12.574219 C 14.019531 12.550781 14.066406 12.527344 14.089844 12.527344 C 14.113281 12.527344 14.136719 12.511719 14.144531 12.492188 C 14.152344 12.472656 14.171875 12.457031 14.1875 12.457031 C 14.242188 12.457031 14.6875 11.972656 14.6875 11.917969 C 14.6875 11.898438 14.710938 11.859375 14.738281 11.824219 C 14.792969 11.753906 14.769531 11.6875 14.671875 11.640625 C 14.640625 11.628906 14.617188 11.605469 14.617188 11.59375 C 14.617188 11.578125 14.597656 11.566406 14.570312 11.566406 C 14.546875 11.566406 14.5 11.546875 14.464844 11.519531 C 14.433594 11.492188 14.390625 11.472656 14.371094 11.472656 C 14.351562 11.472656 14.3125 11.453125 14.28125 11.429688 C 14.210938 11.382812 14.136719 11.339844 13.921875 11.230469 C 13.835938 11.1875 13.75 11.136719 13.730469 11.121094 C 13.714844 11.101562 13.679688 11.089844 13.65625 11.089844 C 13.628906 11.089844 13.597656 11.066406 13.585938 11.039062 C 13.570312 11.011719 13.535156 10.992188 13.507812 10.992188 C 13.480469 10.992188 13.433594 10.96875 13.398438 10.945312 C 13.363281 10.917969 13.316406 10.894531 13.292969 10.894531 C 13.269531 10.894531 13.242188 10.882812 13.230469 10.863281 C 13.21875 10.847656 13.136719 10.796875 13.046875 10.75 C 12.742188 10.59375 12.71875 10.582031 12.71875 10.5625 C 12.71875 10.550781 12.683594 10.535156 12.632812 10.523438 C 12.585938 10.515625 12.542969 10.492188 12.535156 10.476562 C 12.527344 10.457031 12.503906 10.441406 12.480469 10.441406 C 12.457031 10.441406 12.410156 10.417969 12.378906 10.390625 C 12.34375 10.367188 12.300781 10.34375 12.277344 10.34375 C 12.257812 10.34375 12.222656 10.324219 12.199219 10.296875 C 12.175781 10.269531 12.140625 10.246094 12.117188 10.246094 C 12.097656 10.246094 12.054688 10.230469 12.019531 10.207031 C 11.988281 10.183594 11.902344 10.132812 11.824219 10.09375 C 11.75 10.054688 11.683594 10.015625 11.675781 10.007812 C 11.667969 9.996094 11.628906 9.980469 11.589844 9.972656 C 11.550781 9.960938 11.511719 9.941406 11.503906 9.921875 C 11.496094 9.90625 11.460938 9.882812 11.421875 9.875 C 11.382812 9.867188 11.34375 9.84375 11.335938 9.828125 C 11.328125 9.808594 11.285156 9.785156 11.238281 9.777344 C 11.195312 9.769531 11.152344 9.746094 11.144531 9.730469 C 11.136719 9.710938 11.105469 9.695312 11.074219 9.695312 C 11.042969 9.695312 10.996094 9.675781 10.96875 9.648438 C 10.941406 9.621094 10.898438 9.601562 10.871094 9.601562 C 10.84375 9.601562 10.800781 9.578125 10.777344 9.550781 C 10.75 9.527344 10.703125 9.503906 10.675781 9.503906 C 10.644531 9.503906 10.585938 9.480469 10.546875 9.457031 C 10.476562 9.410156 10.390625 9.394531 10.359375 9.425781 "/>
<path style=" stroke:none;fill-rule:evenodd;fill:rgb(95.686275%,58.039216%,61.176471%);fill-opacity:1;" d="M 8.039062 6.121094 C 7.980469 6.128906 7.894531 6.148438 7.847656 6.164062 C 7.800781 6.179688 7.730469 6.191406 7.691406 6.191406 C 7.652344 6.191406 7.578125 6.214844 7.53125 6.238281 C 7.480469 6.265625 7.417969 6.289062 7.394531 6.289062 C 7.367188 6.289062 7.339844 6.296875 7.332031 6.3125 C 7.324219 6.324219 7.257812 6.375 7.179688 6.425781 C 7.105469 6.472656 7.03125 6.527344 7.015625 6.539062 C 7 6.554688 6.960938 6.585938 6.925781 6.613281 C 6.554688 6.890625 6.339844 7.167969 6.265625 7.464844 C 6.25 7.523438 6.226562 7.609375 6.214844 7.65625 C 6.203125 7.703125 6.191406 7.800781 6.191406 7.875 C 6.191406 7.953125 6.175781 8.09375 6.152344 8.1875 C 6.105469 8.414062 6.09375 15.539062 6.144531 15.71875 C 6.160156 15.777344 6.179688 15.9375 6.191406 16.078125 C 6.203125 16.230469 6.226562 16.359375 6.25 16.402344 C 6.269531 16.445312 6.289062 16.488281 6.289062 16.503906 C 6.289062 16.578125 6.441406 16.808594 6.578125 16.941406 C 6.710938 17.070312 6.8125 17.152344 6.863281 17.179688 C 6.898438 17.195312 6.957031 17.230469 6.996094 17.257812 C 7.085938 17.3125 7.167969 17.351562 7.210938 17.351562 C 7.226562 17.351562 7.253906 17.367188 7.269531 17.386719 C 7.289062 17.40625 7.339844 17.429688 7.386719 17.4375 C 7.4375 17.449219 7.496094 17.46875 7.523438 17.488281 C 7.550781 17.503906 7.597656 17.519531 7.632812 17.519531 C 7.664062 17.523438 7.734375 17.539062 7.789062 17.558594 C 7.839844 17.578125 7.953125 17.605469 8.039062 17.617188 C 8.125 17.628906 8.238281 17.65625 8.285156 17.675781 C 8.335938 17.695312 8.445312 17.710938 8.527344 17.710938 C 8.609375 17.710938 8.769531 17.726562 8.878906 17.742188 C 9.027344 17.761719 9.734375 17.769531 11.375 17.773438 C 12.636719 17.773438 14.050781 17.78125 14.519531 17.792969 C 15.328125 17.8125 15.386719 17.8125 15.664062 17.761719 C 15.824219 17.734375 16 17.710938 16.054688 17.710938 C 16.109375 17.710938 16.1875 17.695312 16.226562 17.675781 C 16.261719 17.65625 16.347656 17.632812 16.410156 17.625 C 16.472656 17.617188 16.5625 17.589844 16.609375 17.5625 C 16.652344 17.539062 16.707031 17.519531 16.730469 17.519531 C 16.75 17.519531 16.789062 17.503906 16.8125 17.484375 C 16.839844 17.464844 16.875 17.449219 16.898438 17.449219 C 16.917969 17.449219 16.957031 17.433594 16.980469 17.410156 C 17.007812 17.390625 17.074219 17.347656 17.128906 17.308594 C 17.230469 17.242188 17.449219 16.988281 17.449219 16.933594 C 17.449219 16.914062 17.464844 16.886719 17.484375 16.871094 C 17.503906 16.855469 17.519531 16.824219 17.519531 16.800781 C 17.519531 16.78125 17.539062 16.726562 17.566406 16.679688 C 17.589844 16.632812 17.617188 16.554688 17.625 16.507812 C 17.632812 16.457031 17.65625 16.386719 17.675781 16.351562 C 17.695312 16.3125 17.710938 16.25 17.710938 16.210938 C 17.710938 16.167969 17.734375 16.054688 17.757812 15.957031 C 17.785156 15.859375 17.808594 15.703125 17.808594 15.605469 C 17.808594 15.511719 17.824219 15.324219 17.84375 15.1875 C 17.894531 14.816406 17.917969 8.089844 17.863281 7.910156 C 17.84375 7.84375 17.824219 7.738281 17.816406 7.679688 C 17.800781 7.542969 17.660156 7.226562 17.578125 7.125 C 17.558594 7.105469 17.542969 7.078125 17.542969 7.066406 C 17.542969 7.015625 17.328125 6.761719 17.132812 6.585938 C 17.007812 6.472656 16.636719 6.289062 16.535156 6.289062 C 16.5 6.289062 16.40625 6.265625 16.324219 6.238281 C 16.238281 6.210938 16.101562 6.191406 16.011719 6.191406 C 15.925781 6.191406 15.78125 6.171875 15.695312 6.152344 C 15.527344 6.109375 8.28125 6.078125 8.039062 6.121094 M 15.484375 6.167969 C 15.535156 6.179688 15.71875 6.203125 15.894531 6.214844 C 16.070312 6.222656 16.234375 6.246094 16.261719 6.257812 C 16.289062 6.273438 16.371094 6.292969 16.441406 6.300781 C 16.511719 6.3125 16.609375 6.339844 16.65625 6.363281 C 16.703125 6.386719 16.761719 6.40625 16.789062 6.40625 C 16.820312 6.40625 16.855469 6.421875 16.871094 6.441406 C 16.886719 6.460938 16.921875 6.484375 16.953125 6.492188 C 16.980469 6.503906 17.019531 6.523438 17.039062 6.542969 C 17.257812 6.746094 17.332031 6.824219 17.417969 6.933594 C 17.476562 7.003906 17.519531 7.074219 17.519531 7.09375 C 17.519531 7.113281 17.535156 7.136719 17.554688 7.144531 C 17.574219 7.148438 17.597656 7.1875 17.605469 7.222656 C 17.613281 7.261719 17.632812 7.304688 17.652344 7.320312 C 17.671875 7.335938 17.691406 7.382812 17.703125 7.421875 C 17.710938 7.464844 17.734375 7.519531 17.75 7.546875 C 17.769531 7.574219 17.785156 7.625 17.785156 7.664062 C 17.785156 7.703125 17.808594 7.832031 17.835938 7.949219 C 17.882812 8.160156 17.882812 8.199219 17.867188 9.082031 C 17.855469 9.585938 17.847656 11.085938 17.84375 12.421875 C 17.839844 13.980469 17.828125 14.941406 17.8125 15.121094 C 17.796875 15.273438 17.785156 15.472656 17.785156 15.566406 C 17.785156 15.660156 17.769531 15.78125 17.75 15.832031 C 17.730469 15.886719 17.707031 16.003906 17.699219 16.09375 C 17.6875 16.183594 17.667969 16.28125 17.652344 16.308594 C 17.632812 16.335938 17.613281 16.402344 17.605469 16.457031 C 17.59375 16.511719 17.566406 16.597656 17.542969 16.648438 C 17.515625 16.699219 17.496094 16.757812 17.496094 16.78125 C 17.496094 16.800781 17.484375 16.828125 17.472656 16.835938 C 17.457031 16.84375 17.429688 16.886719 17.410156 16.925781 C 17.328125 17.101562 17.195312 17.25 17.054688 17.320312 C 17.015625 17.339844 16.96875 17.371094 16.949219 17.390625 C 16.929688 17.410156 16.898438 17.425781 16.875 17.425781 C 16.851562 17.425781 16.8125 17.4375 16.789062 17.457031 C 16.761719 17.476562 16.703125 17.496094 16.65625 17.507812 C 16.609375 17.515625 16.554688 17.539062 16.535156 17.554688 C 16.515625 17.574219 16.441406 17.59375 16.367188 17.605469 C 16.296875 17.613281 16.210938 17.636719 16.175781 17.652344 C 16.144531 17.667969 16.023438 17.6875 15.910156 17.699219 C 15.800781 17.707031 15.609375 17.730469 15.492188 17.753906 C 15.3125 17.78125 15.160156 17.785156 14.605469 17.769531 C 14.234375 17.761719 12.910156 17.75 11.664062 17.746094 C 9.363281 17.742188 8.523438 17.71875 8.347656 17.652344 C 8.300781 17.632812 8.1875 17.609375 8.09375 17.601562 C 8.003906 17.59375 7.910156 17.570312 7.882812 17.554688 C 7.859375 17.539062 7.78125 17.515625 7.714844 17.507812 C 7.648438 17.496094 7.574219 17.476562 7.546875 17.460938 C 7.523438 17.441406 7.460938 17.421875 7.410156 17.414062 C 7.359375 17.40625 7.320312 17.386719 7.320312 17.375 C 7.320312 17.363281 7.285156 17.34375 7.242188 17.332031 C 7.199219 17.320312 7.117188 17.28125 7.054688 17.246094 C 6.996094 17.210938 6.914062 17.167969 6.875 17.148438 C 6.761719 17.097656 6.449219 16.777344 6.390625 16.65625 C 6.375 16.625 6.351562 16.578125 6.339844 16.558594 C 6.28125 16.460938 6.21875 16.164062 6.203125 15.910156 C 6.195312 15.761719 6.179688 15.585938 6.167969 15.527344 C 6.140625 15.382812 6.140625 8.566406 6.167969 8.425781 C 6.179688 8.363281 6.199219 8.1875 6.207031 8.027344 C 6.214844 7.859375 6.242188 7.683594 6.265625 7.597656 C 6.292969 7.519531 6.3125 7.441406 6.3125 7.417969 C 6.3125 7.277344 6.617188 6.878906 6.851562 6.714844 C 6.863281 6.703125 6.917969 6.660156 6.972656 6.613281 C 7.023438 6.5625 7.101562 6.511719 7.144531 6.492188 C 7.1875 6.472656 7.222656 6.445312 7.222656 6.433594 C 7.222656 6.417969 7.238281 6.40625 7.257812 6.40625 C 7.273438 6.40625 7.308594 6.386719 7.332031 6.359375 C 7.355469 6.332031 7.394531 6.3125 7.421875 6.3125 C 7.445312 6.3125 7.507812 6.289062 7.558594 6.265625 C 7.613281 6.238281 7.695312 6.214844 7.746094 6.214844 C 7.796875 6.214844 7.875 6.203125 7.921875 6.1875 C 8.074219 6.132812 15.300781 6.113281 15.484375 6.167969 M 10.308594 9.390625 C 10.289062 9.445312 10.257812 13.1875 10.273438 13.488281 C 10.285156 13.652344 10.292969 13.894531 10.292969 14.027344 C 10.296875 14.371094 10.46875 14.582031 10.609375 14.410156 C 10.625 14.390625 10.660156 14.375 10.6875 14.375 C 10.71875 14.375 10.773438 14.355469 10.820312 14.328125 C 10.863281 14.300781 10.910156 14.28125 10.925781 14.28125 C 10.941406 14.28125 10.996094 14.257812 11.046875 14.230469 C 11.09375 14.207031 11.152344 14.183594 11.167969 14.183594 C 11.1875 14.183594 11.230469 14.164062 11.261719 14.136719 C 11.296875 14.109375 11.339844 14.089844 11.359375 14.089844 C 11.378906 14.089844 11.421875 14.066406 11.453125 14.039062 C 11.488281 14.011719 11.53125 13.992188 11.550781 13.992188 C 11.570312 13.992188 11.605469 13.96875 11.628906 13.945312 C 11.652344 13.917969 11.691406 13.894531 11.714844 13.894531 C 11.738281 13.894531 11.765625 13.886719 11.773438 13.871094 C 11.78125 13.859375 11.867188 13.808594 11.964844 13.761719 C 12.0625 13.714844 12.144531 13.667969 12.144531 13.65625 C 12.144531 13.640625 12.164062 13.632812 12.191406 13.632812 C 12.21875 13.632812 12.261719 13.613281 12.285156 13.585938 C 12.308594 13.5625 12.355469 13.535156 12.390625 13.527344 C 12.425781 13.519531 12.46875 13.496094 12.488281 13.476562 C 12.507812 13.457031 12.539062 13.441406 12.558594 13.441406 C 12.578125 13.441406 12.621094 13.421875 12.652344 13.398438 C 12.683594 13.375 12.734375 13.339844 12.769531 13.324219 C 12.800781 13.308594 12.84375 13.285156 12.863281 13.273438 C 12.882812 13.261719 12.917969 13.246094 12.9375 13.238281 C 12.957031 13.226562 13.015625 13.195312 13.066406 13.164062 C 13.121094 13.128906 13.203125 13.085938 13.253906 13.0625 C 13.304688 13.042969 13.34375 13.015625 13.34375 13.007812 C 13.34375 12.996094 13.371094 12.980469 13.40625 12.972656 C 13.445312 12.964844 13.5 12.9375 13.53125 12.910156 C 13.5625 12.886719 13.605469 12.863281 13.621094 12.863281 C 13.636719 12.863281 13.667969 12.851562 13.683594 12.832031 C 13.710938 12.808594 13.859375 12.722656 14.117188 12.59375 C 14.167969 12.566406 14.207031 12.539062 14.207031 12.527344 C 14.207031 12.511719 14.226562 12.503906 14.246094 12.503906 C 14.300781 12.503906 14.636719 12.152344 14.65625 12.082031 C 14.664062 12.050781 14.675781 12.023438 14.6875 12.023438 C 14.726562 12.023438 14.832031 11.824219 14.832031 11.746094 C 14.832031 11.660156 14.707031 11.539062 14.585938 11.507812 C 14.550781 11.5 14.519531 11.480469 14.519531 11.472656 C 14.519531 11.460938 14.484375 11.441406 14.4375 11.425781 C 14.390625 11.410156 14.351562 11.390625 14.347656 11.378906 C 14.335938 11.355469 14.089844 11.230469 14.050781 11.230469 C 14.03125 11.230469 14.007812 11.21875 14 11.199219 C 13.988281 11.179688 13.941406 11.148438 13.894531 11.125 C 13.769531 11.066406 13.53125 10.9375 13.464844 10.890625 C 13.433594 10.867188 13.386719 10.847656 13.367188 10.847656 C 13.34375 10.847656 13.320312 10.832031 13.3125 10.8125 C 13.304688 10.796875 13.265625 10.773438 13.226562 10.765625 C 13.1875 10.757812 13.144531 10.734375 13.128906 10.714844 C 13.113281 10.699219 13.070312 10.675781 13.03125 10.667969 C 12.992188 10.660156 12.960938 10.640625 12.960938 10.628906 C 12.960938 10.617188 12.929688 10.597656 12.894531 10.582031 C 12.808594 10.550781 12.800781 10.546875 12.683594 10.476562 C 12.632812 10.445312 12.554688 10.402344 12.511719 10.382812 C 12.472656 10.363281 12.429688 10.335938 12.421875 10.324219 C 12.414062 10.308594 12.386719 10.296875 12.363281 10.296875 C 12.34375 10.296875 12.296875 10.273438 12.265625 10.246094 C 12.230469 10.222656 12.1875 10.199219 12.164062 10.199219 C 12.144531 10.199219 12.109375 10.179688 12.085938 10.152344 C 12.058594 10.125 12.023438 10.105469 12 10.105469 C 11.976562 10.105469 11.941406 10.082031 11.914062 10.054688 C 11.890625 10.03125 11.851562 10.007812 11.828125 10.007812 C 11.804688 10.007812 11.761719 9.988281 11.734375 9.960938 C 11.710938 9.933594 11.671875 9.910156 11.648438 9.910156 C 11.628906 9.910156 11.585938 9.890625 11.550781 9.863281 C 11.515625 9.835938 11.476562 9.816406 11.460938 9.816406 C 11.441406 9.816406 11.417969 9.800781 11.402344 9.78125 C 11.386719 9.761719 11.34375 9.742188 11.304688 9.730469 C 11.265625 9.722656 11.222656 9.703125 11.207031 9.683594 C 11.191406 9.664062 11.148438 9.644531 11.113281 9.636719 C 11.074219 9.628906 11.03125 9.605469 11.015625 9.585938 C 11 9.570312 10.949219 9.546875 10.90625 9.539062 C 10.863281 9.53125 10.8125 9.507812 10.796875 9.488281 C 10.78125 9.472656 10.75 9.457031 10.726562 9.457031 C 10.707031 9.457031 10.660156 9.433594 10.625 9.40625 C 10.554688 9.351562 10.324219 9.339844 10.308594 9.390625 M 10.601562 9.429688 C 10.738281 9.5 10.90625 9.574219 10.9375 9.574219 C 10.949219 9.574219 10.976562 9.589844 10.992188 9.609375 C 11.007812 9.628906 11.050781 9.652344 11.089844 9.660156 C 11.125 9.667969 11.167969 9.691406 11.183594 9.710938 C 11.199219 9.730469 11.234375 9.742188 11.253906 9.742188 C 11.277344 9.742188 11.324219 9.765625 11.359375 9.792969 C 11.390625 9.820312 11.433594 9.839844 11.453125 9.839844 C 11.472656 9.839844 11.507812 9.863281 11.53125 9.886719 C 11.554688 9.914062 11.59375 9.9375 11.613281 9.9375 C 11.636719 9.9375 11.679688 9.953125 11.710938 9.976562 C 11.738281 9.996094 11.828125 10.046875 11.902344 10.085938 C 11.976562 10.128906 12.078125 10.183594 12.132812 10.214844 C 12.183594 10.242188 12.304688 10.308594 12.402344 10.355469 C 12.496094 10.40625 12.582031 10.453125 12.589844 10.464844 C 12.59375 10.476562 12.632812 10.492188 12.671875 10.5 C 12.707031 10.507812 12.746094 10.53125 12.753906 10.546875 C 12.757812 10.566406 12.796875 10.585938 12.839844 10.59375 C 12.878906 10.605469 12.917969 10.621094 12.925781 10.632812 C 12.929688 10.644531 13 10.683594 13.074219 10.722656 C 13.148438 10.761719 13.261719 10.824219 13.320312 10.855469 C 13.378906 10.890625 13.503906 10.957031 13.597656 11.003906 C 13.6875 11.054688 13.816406 11.125 13.882812 11.160156 C 13.949219 11.199219 14.019531 11.234375 14.039062 11.246094 C 14.113281 11.277344 14.125 11.285156 14.21875 11.339844 C 14.273438 11.371094 14.390625 11.4375 14.484375 11.480469 C 14.875 11.671875 14.882812 11.726562 14.589844 12.121094 C 14.394531 12.378906 14.304688 12.457031 14.015625 12.609375 C 13.945312 12.648438 13.835938 12.707031 13.777344 12.738281 C 13.714844 12.769531 13.625 12.820312 13.570312 12.851562 C 13.519531 12.882812 13.402344 12.945312 13.308594 12.996094 C 13.214844 13.042969 13.097656 13.109375 13.042969 13.136719 C 12.992188 13.167969 12.882812 13.230469 12.804688 13.269531 C 12.726562 13.3125 12.617188 13.371094 12.5625 13.402344 C 12.449219 13.472656 12.4375 13.476562 12.359375 13.511719 C 12.328125 13.527344 12.257812 13.5625 12.203125 13.597656 C 12.152344 13.628906 12.03125 13.691406 11.941406 13.742188 C 11.847656 13.789062 11.730469 13.851562 11.675781 13.882812 C 11.625 13.914062 11.519531 13.96875 11.449219 14.003906 C 11.375 14.039062 11.300781 14.078125 11.28125 14.089844 C 11.261719 14.101562 11.21875 14.125 11.183594 14.136719 C 11.152344 14.152344 11.085938 14.183594 11.035156 14.210938 C 10.988281 14.234375 10.929688 14.257812 10.90625 14.257812 C 10.886719 14.257812 10.828125 14.277344 10.78125 14.300781 C 10.703125 14.339844 10.605469 14.378906 10.484375 14.417969 C 10.382812 14.449219 10.339844 14.304688 10.316406 13.839844 C 10.292969 13.414062 10.3125 9.441406 10.335938 9.402344 C 10.355469 9.367188 10.515625 9.382812 10.601562 9.429688 "/>
<path style=" stroke:none;fill-rule:evenodd;fill:rgb(95.686275%,43.137255%,47.843137%);fill-opacity:1;" d="M 7.828125 6.121094 C 7.769531 6.148438 7.6875 6.167969 7.640625 6.167969 C 7.570312 6.167969 7.429688 6.222656 7.320312 6.289062 C 7.300781 6.304688 7.257812 6.328125 7.222656 6.34375 C 7.1875 6.359375 7.144531 6.386719 7.121094 6.40625 C 7.097656 6.429688 7.058594 6.460938 7.035156 6.480469 C 7.011719 6.5 6.976562 6.527344 6.957031 6.539062 C 6.8125 6.632812 6.757812 6.679688 6.585938 6.855469 C 6.46875 6.972656 6.375 7.089844 6.359375 7.136719 C 6.347656 7.183594 6.320312 7.226562 6.300781 7.230469 C 6.285156 7.238281 6.265625 7.292969 6.257812 7.347656 C 6.25 7.40625 6.226562 7.484375 6.207031 7.523438 C 6.179688 7.570312 6.167969 7.660156 6.167969 7.78125 C 6.167969 7.902344 6.152344 8.003906 6.125 8.070312 C 6.085938 8.164062 6.085938 8.410156 6.085938 11.988281 C 6.085938 15.566406 6.085938 15.808594 6.125 15.90625 C 6.152344 15.972656 6.167969 16.074219 6.167969 16.183594 C 6.167969 16.292969 6.179688 16.375 6.199219 16.40625 C 6.21875 16.429688 6.242188 16.488281 6.25 16.53125 C 6.269531 16.609375 6.324219 16.710938 6.40625 16.808594 C 6.480469 16.894531 6.667969 17.089844 6.679688 17.089844 C 6.683594 17.089844 6.730469 17.125 6.78125 17.171875 C 6.828125 17.214844 6.898438 17.257812 6.933594 17.269531 C 6.96875 17.277344 7.015625 17.304688 7.039062 17.328125 C 7.0625 17.355469 7.105469 17.375 7.132812 17.375 C 7.160156 17.375 7.207031 17.398438 7.242188 17.425781 C 7.273438 17.449219 7.339844 17.472656 7.382812 17.472656 C 7.425781 17.472656 7.46875 17.488281 7.480469 17.507812 C 7.492188 17.527344 7.554688 17.550781 7.621094 17.558594 C 7.6875 17.566406 7.757812 17.589844 7.777344 17.609375 C 7.800781 17.628906 7.898438 17.648438 7.996094 17.65625 C 8.09375 17.664062 8.195312 17.6875 8.222656 17.707031 C 8.257812 17.726562 8.390625 17.746094 8.585938 17.757812 C 8.753906 17.769531 8.945312 17.792969 9.011719 17.804688 C 9.21875 17.847656 15.65625 17.839844 15.753906 17.796875 C 15.792969 17.78125 15.925781 17.757812 16.042969 17.75 C 16.171875 17.742188 16.269531 17.726562 16.292969 17.703125 C 16.316406 17.6875 16.386719 17.664062 16.449219 17.65625 C 16.515625 17.648438 16.585938 17.625 16.609375 17.605469 C 16.628906 17.585938 16.667969 17.566406 16.695312 17.566406 C 16.71875 17.566406 16.785156 17.546875 16.835938 17.519531 C 16.886719 17.492188 16.941406 17.472656 16.953125 17.472656 C 17.007812 17.472656 17.375 17.171875 17.375 17.125 C 17.375 17.117188 17.398438 17.089844 17.425781 17.0625 C 17.449219 17.039062 17.472656 16.992188 17.472656 16.96875 C 17.472656 16.941406 17.488281 16.914062 17.507812 16.90625 C 17.527344 16.898438 17.550781 16.847656 17.558594 16.800781 C 17.566406 16.75 17.585938 16.703125 17.605469 16.695312 C 17.621094 16.6875 17.644531 16.632812 17.652344 16.566406 C 17.664062 16.503906 17.683594 16.433594 17.703125 16.414062 C 17.722656 16.390625 17.742188 16.300781 17.753906 16.210938 C 17.761719 16.121094 17.78125 16.019531 17.800781 15.984375 C 17.820312 15.945312 17.832031 15.851562 17.828125 15.730469 L 17.824219 15.539062 L 17.808594 15.71875 C 17.796875 15.820312 17.777344 15.933594 17.765625 15.972656 C 17.75 16.011719 17.734375 16.105469 17.726562 16.183594 C 17.71875 16.261719 17.695312 16.347656 17.675781 16.375 C 17.65625 16.402344 17.640625 16.453125 17.640625 16.484375 C 17.640625 16.542969 17.613281 16.613281 17.464844 16.917969 C 17.367188 17.125 17.03125 17.449219 16.914062 17.449219 C 16.898438 17.449219 16.851562 17.46875 16.8125 17.496094 C 16.773438 17.523438 16.71875 17.542969 16.691406 17.542969 C 16.664062 17.542969 16.621094 17.558594 16.589844 17.582031 C 16.5625 17.601562 16.488281 17.625 16.421875 17.632812 C 16.359375 17.640625 16.277344 17.660156 16.242188 17.679688 C 16.207031 17.699219 16.070312 17.722656 15.941406 17.734375 C 15.8125 17.75 15.675781 17.769531 15.636719 17.78125 C 15.5625 17.800781 9.191406 17.796875 9.121094 17.773438 C 9.101562 17.765625 8.917969 17.75 8.710938 17.738281 C 8.480469 17.722656 8.304688 17.699219 8.25 17.675781 C 8.203125 17.65625 8.121094 17.640625 8.070312 17.640625 C 8.019531 17.636719 7.9375 17.621094 7.882812 17.601562 C 7.832031 17.582031 7.734375 17.554688 7.667969 17.539062 C 7.605469 17.527344 7.527344 17.5 7.5 17.480469 C 7.476562 17.464844 7.425781 17.449219 7.390625 17.449219 C 7.355469 17.449219 7.300781 17.425781 7.265625 17.398438 C 7.230469 17.375 7.191406 17.351562 7.179688 17.351562 C 7.148438 17.351562 6.988281 17.265625 6.839844 17.171875 C 6.609375 17.027344 6.320312 16.675781 6.273438 16.492188 C 6.261719 16.457031 6.242188 16.402344 6.222656 16.371094 C 6.207031 16.335938 6.191406 16.246094 6.191406 16.167969 C 6.191406 16.09375 6.171875 15.945312 6.148438 15.84375 C 6.109375 15.671875 6.109375 15.398438 6.109375 11.988281 C 6.109375 8.578125 6.109375 8.304688 6.148438 8.132812 C 6.171875 8.027344 6.191406 7.882812 6.191406 7.804688 C 6.191406 7.726562 6.214844 7.605469 6.238281 7.53125 C 6.265625 7.453125 6.289062 7.375 6.289062 7.347656 C 6.289062 7.136719 7.089844 6.378906 7.421875 6.273438 C 7.449219 6.265625 7.496094 6.242188 7.523438 6.226562 C 7.550781 6.207031 7.601562 6.191406 7.644531 6.191406 C 7.683594 6.191406 7.792969 6.171875 7.882812 6.144531 C 8.046875 6.097656 8.125 6.097656 11.738281 6.097656 C 15.320312 6.097656 15.429688 6.097656 15.683594 6.144531 C 15.828125 6.171875 16.007812 6.191406 16.082031 6.191406 C 16.15625 6.191406 16.261719 6.207031 16.3125 6.226562 C 16.363281 6.242188 16.453125 6.265625 16.511719 6.273438 C 16.617188 6.292969 16.714844 6.328125 16.941406 6.441406 C 17.140625 6.539062 17.492188 6.921875 17.621094 7.175781 C 17.636719 7.210938 17.664062 7.253906 17.679688 7.273438 C 17.722656 7.324219 17.785156 7.5 17.820312 7.671875 C 17.835938 7.75 17.859375 7.832031 17.871094 7.851562 C 17.882812 7.867188 17.898438 8.050781 17.90625 8.257812 L 17.917969 8.628906 L 17.921875 8.242188 C 17.925781 7.9375 17.921875 7.84375 17.890625 7.789062 C 17.871094 7.75 17.847656 7.667969 17.839844 7.609375 C 17.832031 7.550781 17.8125 7.484375 17.796875 7.464844 C 17.777344 7.445312 17.757812 7.394531 17.75 7.351562 C 17.738281 7.308594 17.71875 7.261719 17.699219 7.246094 C 17.679688 7.230469 17.664062 7.207031 17.664062 7.191406 C 17.664062 7.15625 17.445312 6.835938 17.40625 6.824219 C 17.390625 6.816406 17.375 6.800781 17.375 6.785156 C 17.375 6.773438 17.320312 6.710938 17.25 6.644531 C 17.179688 6.582031 17.105469 6.511719 17.085938 6.492188 C 17.066406 6.472656 17.035156 6.457031 17.023438 6.457031 C 17.011719 6.457031 16.980469 6.433594 16.957031 6.410156 C 16.933594 6.386719 16.878906 6.359375 16.832031 6.347656 C 16.785156 6.339844 16.730469 6.320312 16.714844 6.300781 C 16.699219 6.285156 16.628906 6.265625 16.558594 6.257812 C 16.492188 6.25 16.417969 6.226562 16.398438 6.210938 C 16.378906 6.195312 16.253906 6.175781 16.105469 6.164062 C 15.964844 6.15625 15.792969 6.128906 15.722656 6.109375 C 15.492188 6.042969 7.972656 6.054688 7.828125 6.121094 M 17.910156 11.890625 C 17.90625 14.386719 17.898438 14.90625 17.867188 15.105469 C 17.8125 15.480469 17.824219 15.515625 17.902344 15.191406 C 17.921875 15.117188 17.925781 14.128906 17.921875 12 L 17.914062 8.914062 L 17.910156 11.890625 M 10.351562 9.414062 C 10.320312 9.449219 10.296875 12.894531 10.320312 13.679688 C 10.339844 14.359375 10.402344 14.53125 10.570312 14.375 C 10.582031 14.363281 10.609375 14.351562 10.632812 14.351562 C 10.652344 14.351562 10.710938 14.332031 10.765625 14.304688 C 10.816406 14.277344 10.871094 14.257812 10.890625 14.257812 C 10.90625 14.257812 10.960938 14.234375 11.011719 14.210938 C 11.058594 14.183594 11.128906 14.152344 11.160156 14.136719 C 11.191406 14.125 11.234375 14.101562 11.257812 14.089844 C 11.277344 14.078125 11.367188 14.03125 11.457031 13.988281 C 11.683594 13.878906 11.746094 13.84375 11.761719 13.824219 C 11.765625 13.816406 11.84375 13.773438 11.929688 13.730469 C 12.015625 13.6875 12.128906 13.625 12.179688 13.59375 C 12.234375 13.5625 12.304688 13.523438 12.335938 13.511719 C 12.367188 13.496094 12.414062 13.472656 12.433594 13.460938 C 12.453125 13.449219 12.5 13.421875 12.539062 13.402344 C 12.578125 13.382812 12.6875 13.324219 12.78125 13.269531 C 12.871094 13.21875 12.992188 13.15625 13.042969 13.128906 C 13.25 13.023438 13.265625 13.007812 13.207031 13.007812 C 13.175781 13.007812 13.132812 13.03125 13.109375 13.054688 C 13.085938 13.082031 13.050781 13.105469 13.027344 13.105469 C 13.003906 13.105469 12.964844 13.125 12.941406 13.152344 C 12.917969 13.179688 12.878906 13.199219 12.851562 13.199219 C 12.824219 13.199219 12.78125 13.222656 12.757812 13.246094 C 12.730469 13.273438 12.695312 13.296875 12.679688 13.296875 C 12.660156 13.296875 12.617188 13.316406 12.582031 13.34375 C 12.550781 13.371094 12.507812 13.390625 12.492188 13.390625 C 12.476562 13.390625 12.449219 13.40625 12.433594 13.425781 C 12.417969 13.445312 12.371094 13.46875 12.332031 13.476562 C 12.292969 13.484375 12.253906 13.507812 12.246094 13.527344 C 12.242188 13.542969 12.214844 13.558594 12.1875 13.558594 C 12.164062 13.558594 12.121094 13.582031 12.097656 13.609375 C 12.070312 13.632812 12.035156 13.65625 12.015625 13.65625 C 11.996094 13.65625 11.953125 13.675781 11.921875 13.703125 C 11.886719 13.730469 11.84375 13.753906 11.820312 13.753906 C 11.800781 13.753906 11.761719 13.773438 11.734375 13.800781 C 11.710938 13.828125 11.675781 13.847656 11.65625 13.847656 C 11.640625 13.847656 11.601562 13.867188 11.570312 13.886719 C 11.488281 13.945312 11.304688 14.039062 11.277344 14.039062 C 11.261719 14.039062 11.222656 14.0625 11.191406 14.089844 C 11.15625 14.113281 11.105469 14.136719 11.078125 14.136719 C 11.046875 14.136719 11.003906 14.15625 10.980469 14.183594 C 10.957031 14.210938 10.90625 14.230469 10.871094 14.230469 C 10.832031 14.230469 10.789062 14.246094 10.769531 14.265625 C 10.753906 14.285156 10.6875 14.308594 10.628906 14.320312 C 10.570312 14.335938 10.507812 14.351562 10.488281 14.355469 C 10.464844 14.359375 10.4375 14.316406 10.398438 14.210938 L 10.34375 14.058594 L 10.351562 11.738281 L 10.355469 9.421875 L 10.410156 9.414062 C 10.441406 9.40625 10.5 9.425781 10.546875 9.453125 C 10.589844 9.480469 10.652344 9.503906 10.683594 9.503906 C 10.738281 9.5 10.738281 9.5 10.675781 9.480469 C 10.640625 9.46875 10.585938 9.445312 10.554688 9.421875 C 10.492188 9.375 10.382812 9.371094 10.351562 9.414062 M 10.753906 9.527344 C 10.753906 9.554688 10.832031 9.601562 10.882812 9.601562 C 10.902344 9.601562 10.941406 9.621094 10.96875 9.648438 C 10.996094 9.675781 11.042969 9.695312 11.074219 9.695312 C 11.105469 9.695312 11.136719 9.710938 11.144531 9.730469 C 11.152344 9.746094 11.195312 9.769531 11.238281 9.777344 C 11.285156 9.785156 11.328125 9.808594 11.335938 9.828125 C 11.34375 9.84375 11.382812 9.867188 11.421875 9.875 C 11.460938 9.882812 11.496094 9.90625 11.503906 9.921875 C 11.511719 9.941406 11.550781 9.960938 11.589844 9.972656 C 11.628906 9.980469 11.667969 9.996094 11.675781 10.007812 C 11.683594 10.015625 11.75 10.054688 11.824219 10.09375 C 11.902344 10.132812 11.988281 10.183594 12.019531 10.207031 C 12.054688 10.230469 12.097656 10.246094 12.117188 10.246094 C 12.140625 10.246094 12.175781 10.269531 12.199219 10.296875 C 12.222656 10.324219 12.257812 10.34375 12.277344 10.34375 C 12.300781 10.34375 12.34375 10.367188 12.378906 10.390625 C 12.410156 10.417969 12.457031 10.441406 12.480469 10.441406 C 12.503906 10.441406 12.527344 10.457031 12.535156 10.476562 C 12.542969 10.492188 12.585938 10.515625 12.632812 10.523438 C 12.683594 10.535156 12.71875 10.550781 12.71875 10.5625 C 12.71875 10.582031 12.742188 10.59375 13.046875 10.75 C 13.136719 10.796875 13.21875 10.847656 13.230469 10.863281 C 13.242188 10.882812 13.269531 10.894531 13.292969 10.894531 C 13.316406 10.894531 13.363281 10.917969 13.398438 10.945312 C 13.433594 10.96875 13.480469 10.992188 13.503906 10.992188 C 13.542969 10.988281 13.542969 10.988281 13.5 10.964844 C 13.472656 10.953125 13.410156 10.917969 13.355469 10.886719 C 13.304688 10.855469 13.183594 10.789062 13.09375 10.742188 C 13 10.695312 12.878906 10.628906 12.828125 10.597656 C 12.773438 10.566406 12.703125 10.527344 12.671875 10.511719 C 12.585938 10.476562 12.574219 10.46875 12.46875 10.40625 C 12.414062 10.375 12.296875 10.308594 12.203125 10.261719 C 12.113281 10.214844 11.960938 10.132812 11.867188 10.082031 C 11.777344 10.027344 11.671875 9.972656 11.640625 9.960938 C 11.5625 9.925781 11.550781 9.921875 11.4375 9.851562 C 11.339844 9.792969 11.277344 9.761719 11.207031 9.734375 C 11.1875 9.726562 11.15625 9.710938 11.136719 9.699219 C 11.117188 9.6875 11.074219 9.664062 11.039062 9.652344 C 11.007812 9.636719 10.964844 9.617188 10.945312 9.605469 C 10.828125 9.539062 10.753906 9.507812 10.753906 9.527344 M 13.582031 11.035156 C 13.597656 11.0625 13.628906 11.089844 13.65625 11.089844 C 13.679688 11.089844 13.714844 11.101562 13.730469 11.121094 C 13.75 11.136719 13.835938 11.1875 13.921875 11.230469 C 14.136719 11.339844 14.210938 11.382812 14.28125 11.429688 C 14.3125 11.453125 14.351562 11.472656 14.371094 11.472656 C 14.390625 11.472656 14.433594 11.492188 14.464844 11.519531 C 14.5 11.546875 14.546875 11.566406 14.570312 11.566406 C 14.597656 11.566406 14.617188 11.578125 14.617188 11.59375 C 14.617188 11.605469 14.640625 11.628906 14.671875 11.640625 C 14.769531 11.6875 14.792969 11.753906 14.738281 11.824219 C 14.710938 11.859375 14.6875 11.898438 14.6875 11.917969 C 14.6875 11.972656 14.242188 12.457031 14.1875 12.457031 C 14.171875 12.457031 14.152344 12.472656 14.144531 12.492188 C 14.136719 12.511719 14.113281 12.527344 14.089844 12.527344 C 14.066406 12.527344 14.019531 12.550781 13.988281 12.574219 C 13.953125 12.601562 13.898438 12.628906 13.863281 12.636719 C 13.824219 12.648438 13.789062 12.667969 13.785156 12.6875 C 13.777344 12.703125 13.742188 12.722656 13.703125 12.730469 C 13.667969 12.742188 13.621094 12.761719 13.605469 12.78125 C 13.589844 12.800781 13.5625 12.816406 13.546875 12.816406 C 13.53125 12.816406 13.5 12.832031 13.480469 12.851562 C 13.460938 12.867188 13.40625 12.902344 13.359375 12.921875 C 13.3125 12.941406 13.273438 12.96875 13.273438 12.988281 C 13.273438 13.003906 13.289062 13 13.316406 12.976562 C 13.339844 12.953125 13.378906 12.9375 13.398438 12.9375 C 13.417969 12.9375 13.453125 12.921875 13.472656 12.902344 C 13.488281 12.882812 13.542969 12.851562 13.585938 12.828125 C 13.632812 12.808594 13.742188 12.75 13.835938 12.695312 C 13.929688 12.644531 14.03125 12.585938 14.0625 12.570312 C 14.25 12.476562 14.382812 12.367188 14.523438 12.183594 C 14.585938 12.101562 14.652344 12.019531 14.667969 12.003906 C 14.867188 11.765625 14.832031 11.675781 14.472656 11.488281 C 14.398438 11.449219 14.296875 11.394531 14.242188 11.363281 C 14.191406 11.332031 14.121094 11.292969 14.089844 11.277344 C 14.054688 11.261719 14.011719 11.242188 13.992188 11.230469 C 13.972656 11.21875 13.929688 11.195312 13.894531 11.179688 C 13.863281 11.164062 13.808594 11.128906 13.777344 11.105469 C 13.746094 11.082031 13.703125 11.0625 13.683594 11.0625 C 13.664062 11.0625 13.625 11.046875 13.601562 11.023438 C 13.554688 10.980469 13.554688 10.980469 13.582031 11.035156 "/>
<path style=" stroke:none;fill-rule:evenodd;fill:rgb(95.686275%,51.764706%,54.901961%);fill-opacity:1;" d="M 15.292969 6.113281 C 15.332031 6.117188 15.390625 6.117188 15.425781 6.113281 C 15.460938 6.109375 15.433594 6.101562 15.359375 6.101562 C 15.289062 6.101562 15.257812 6.109375 15.292969 6.113281 M 6.105469 8.566406 C 6.105469 8.652344 6.109375 8.6875 6.113281 8.644531 C 6.117188 8.601562 6.117188 8.53125 6.113281 8.488281 C 6.109375 8.445312 6.105469 8.480469 6.105469 8.566406 M 17.910156 8.773438 C 17.910156 8.863281 17.917969 8.898438 17.921875 8.847656 C 17.925781 8.800781 17.925781 8.722656 17.921875 8.679688 C 17.914062 8.640625 17.910156 8.679688 17.910156 8.773438 M 6.109375 12 C 6.109375 13.367188 6.109375 13.925781 6.113281 13.242188 C 6.117188 12.558594 6.117188 11.441406 6.113281 10.757812 C 6.109375 10.074219 6.109375 10.632812 6.109375 12 M 17.890625 12.109375 C 17.890625 13.308594 17.894531 13.796875 17.898438 13.191406 C 17.902344 12.585938 17.902344 11.605469 17.898438 11.007812 C 17.894531 10.410156 17.890625 10.90625 17.890625 12.109375 M 10.304688 11.675781 C 10.304688 12.03125 10.308594 12.179688 10.3125 12.007812 C 10.316406 11.832031 10.316406 11.542969 10.3125 11.359375 C 10.308594 11.175781 10.304688 11.320312 10.304688 11.675781 M 10.304688 13.453125 C 10.304688 13.558594 10.308594 13.597656 10.3125 13.542969 C 10.320312 13.484375 10.320312 13.398438 10.3125 13.347656 C 10.308594 13.300781 10.304688 13.347656 10.304688 13.453125 M 17.886719 14.761719 C 17.886719 14.859375 17.890625 14.898438 17.898438 14.851562 C 17.902344 14.800781 17.902344 14.71875 17.898438 14.671875 C 17.890625 14.621094 17.886719 14.660156 17.886719 14.761719 M 6.105469 15.335938 C 6.105469 15.449219 6.109375 15.492188 6.113281 15.4375 C 6.117188 15.382812 6.117188 15.289062 6.113281 15.234375 C 6.109375 15.179688 6.105469 15.222656 6.105469 15.335938 M 17.816406 15.457031 C 17.816406 15.515625 17.820312 15.539062 17.824219 15.511719 C 17.832031 15.480469 17.832031 15.433594 17.824219 15.402344 C 17.820312 15.371094 17.816406 15.398438 17.816406 15.457031 M 7.996094 17.632812 C 8.019531 17.636719 8.058594 17.636719 8.082031 17.632812 C 8.105469 17.625 8.085938 17.621094 8.039062 17.621094 C 7.992188 17.621094 7.976562 17.625 7.996094 17.632812 M 8.539062 17.730469 C 8.582031 17.734375 8.652344 17.734375 8.695312 17.730469 C 8.738281 17.722656 8.703125 17.71875 8.617188 17.71875 C 8.53125 17.71875 8.496094 17.722656 8.539062 17.730469 M 15.929688 17.730469 C 15.960938 17.734375 16.007812 17.734375 16.039062 17.730469 C 16.066406 17.722656 16.042969 17.71875 15.984375 17.71875 C 15.925781 17.71875 15.898438 17.722656 15.929688 17.730469 M 11.09375 17.777344 C 11.566406 17.78125 12.339844 17.78125 12.808594 17.777344 C 13.28125 17.773438 12.894531 17.769531 11.953125 17.769531 C 11.007812 17.769531 10.621094 17.773438 11.09375 17.777344 M 9.484375 17.800781 C 9.574219 17.804688 9.726562 17.804688 9.820312 17.800781 C 9.917969 17.796875 9.84375 17.792969 9.660156 17.792969 C 9.476562 17.792969 9.394531 17.796875 9.484375 17.800781 M 13.84375 17.800781 C 13.871094 17.808594 13.921875 17.808594 13.949219 17.800781 C 13.980469 17.796875 13.957031 17.789062 13.894531 17.789062 C 13.835938 17.789062 13.8125 17.796875 13.84375 17.800781 "/>
</g>
</svg>
